<?xml version="1.0" standalone="no"?>
<!DOCTYPE svg PUBLIC "-//W3C//DTD SVG 1.1//EN" "http://www.w3.org/Graphics/SVG/1.1/DTD/svg11.dtd" >
<svg xmlns="http://www.w3.org/2000/svg">
<metadata></metadata>
<defs>
<font id="hirukoregular" horiz-adv-x="1228" >
<font-face units-per-em="2048" ascent="1536" descent="-512" />
<missing-glyph horiz-adv-x="593" />
<glyph horiz-adv-x="2048" />
<glyph horiz-adv-x="2048" />
<glyph unicode="&#xd;" horiz-adv-x="2048" />
<glyph unicode=" "  horiz-adv-x="593" />
<glyph unicode="&#x09;" horiz-adv-x="593" />
<glyph unicode="&#xa0;" horiz-adv-x="593" />
<glyph unicode="!" horiz-adv-x="462" d="M92 131q0 58 41.5 99.5t97.5 41.5q59 0 100.5 -41.5t41.5 -99.5q0 -56 -42 -97.5t-100 -41.5q-55 0 -97 42t-42 97zM94 518v856q0 84 38 126t99 42q64 0 103 -42t39 -126v-856q0 -84 -39.5 -127t-102.5 -43q-60 0 -98.5 43t-38.5 127z" />
<glyph unicode="&#x22;" horiz-adv-x="843" d="M117 1065v348q0 57 30 90t86 33t86.5 -33t30.5 -90v-348q0 -57 -30.5 -90t-86.5 -33t-86 33t-30 90zM494 1065v348q0 57 30 90t86 33t86.5 -33t30.5 -90v-348q0 -57 -30.5 -90t-86.5 -33t-86 33t-30 90z" />
<glyph unicode="#" horiz-adv-x="1441" d="M106 514q0 40 25.5 69t73.5 29h205l32 234h-176q-48 0 -73 29t-25 69t25 69t73 29h205l45 330q7 54 31 76t71 22q38 0 66.5 -22.5t28.5 -58.5l-2 -29q0 -11 -2 -21l-41 -297h196l45 330q7 54 31.5 76t71.5 22q38 0 66 -22.5t28 -58.5l-2 -29q0 -11 -2 -21l-41 -297h176 q48 0 73 -29t25 -69t-25 -69t-73 -29h-205l-33 -234h177q48 0 73 -29t25 -69t-25 -69t-73 -29h-205l-45 -330q-7 -54 -31.5 -76t-71.5 -22q-38 0 -66 23t-28 59l2 28q0 11 2 21l41 297h-196l-46 -330q-7 -54 -31 -76t-71 -22q-38 0 -66 23t-28 59l2 28q0 11 2 21l41 297 h-176q-48 0 -73.5 29t-25.5 69zM608 612h195l33 234h-195z" />
<glyph unicode="$" horiz-adv-x="1095" d="M109 307q0 63 38.5 102.5t94.5 39.5q29 0 49.5 -6t37 -22.5t24.5 -28t26 -40.5l10 -16q39 -62 154 -62q65 0 108 46.5t43 109.5q0 32 -6 57.5t-13.5 44t-25 35t-30.5 26t-40.5 21.5t-45 18t-52.5 17q-168 54 -269 167.5t-101 275.5q0 178 89.5 295.5t248.5 148.5v72 q0 57 30 90t86 33t86.5 -33t30.5 -90v-78q91 -28 160.5 -88t97.5 -148q10 -30 10 -55q0 -62 -42 -105.5t-103 -43.5q-38 0 -75.5 20.5t-53.5 56.5l-12 27q-14 29 -50.5 44t-72.5 15q-56 0 -97 -45.5t-41 -103.5q0 -22 6.5 -41.5t16 -34t26 -29t30 -24t35.5 -21t35.5 -17 t36.5 -15t32 -13.5q199 -86 282.5 -190t83.5 -289q0 -150 -85.5 -268t-219.5 -160v-68q0 -56 -30.5 -89t-86.5 -33t-86 32.5t-30 89.5v60q-92 15 -166.5 52.5t-124 105.5t-49.5 155z" />
<glyph unicode="%" horiz-adv-x="1873" d="M111 1167q0 152 108 260.5t260 108.5t260.5 -108.5t108.5 -260.5t-108.5 -260t-260.5 -108t-260 108t-108 260zM313 1167q0 -69 48.5 -117.5t117.5 -48.5t117.5 48.5t48.5 117.5t-48.5 117.5t-117.5 48.5t-117.5 -48.5t-48.5 -117.5zM506 61q0 19 10 39l713 1399 q8 21 26 34t41 13q29 0 49.5 -20t20.5 -49q0 -18 -12 -39q-711 -1401 -719 -1413q-20 -33 -60 -33q-29 0 -49 20t-20 49zM1026 369q0 152 108.5 260t260.5 108t260 -108t108 -260t-108 -260.5t-260 -108.5t-260.5 108.5t-108.5 260.5zM1229 369q0 -69 48.5 -117.5 t117.5 -48.5t117.5 48.5t48.5 117.5t-48.5 117.5t-117.5 48.5t-117.5 -48.5t-48.5 -117.5z" />
<glyph unicode="&#x26;" horiz-adv-x="1480" d="M72 444q0 133 67.5 244.5t192.5 188.5q-154 118 -154 311q0 149 113 256.5t266 107.5q149 0 256 -107.5t107 -256.5q0 -203 -201 -334l164 -160l129 242q28 57 86 74q20 4 32 4q45 0 83.5 -28t48.5 -73q6 -18 6 -39q0 -30 -17 -57l-153 -289q-6 -9 -6 -18q0 -10 6 -16 l256 -236q49 -42 49 -102q0 -56 -40 -96t-95 -40q-52 0 -92 37q-220 203 -220 199q-54 -124 -166 -198t-245 -74q-96 0 -183.5 36t-151 97t-101 146.5t-37.5 180.5zM338 453q0 -85 59 -144t144 -59q32 0 62.5 15t49 31.5t41 49.5t29 44.5t22.5 41.5l7 12l-103 103l-153 137 q-65 -37 -111.5 -97.5t-46.5 -133.5zM444 1178q0 -35 26 -73t50 -58.5t27 -20.5q9 0 37 25q22 20 35 34t24.5 39t11.5 54q0 43 -30.5 73.5t-73.5 30.5q-44 0 -75.5 -30.5t-31.5 -73.5z" />
<glyph unicode="'" horiz-adv-x="462" d="M115 1065v348q0 57 30 90t86 33t86.5 -33t30.5 -90v-348q0 -57 -30.5 -90t-86.5 -33t-86 33t-30 90z" />
<glyph unicode="(" horiz-adv-x="702" d="M113 346v752q0 332 247 524q43 31 89 31q58 0 98.5 -40.5t40.5 -99.5q0 -57 -39 -96q-91 -91 -117 -169.5t-26 -221.5v-608q0 -143 26 -221.5t117 -169.5q39 -39 39 -97t-40 -98.5t-99 -40.5q-46 0 -89 31q-247 192 -247 524z" />
<glyph unicode=")" horiz-adv-x="702" d="M115 -70q0 58 39 97q90 91 116.5 169.5t26.5 221.5v608q0 143 -26.5 221.5t-116.5 169.5q-39 39 -39 96q0 59 40.5 99.5t98.5 40.5q45 0 88 -31q119 -93 183.5 -225.5t64.5 -298.5v-752q0 -166 -64.5 -298.5t-183.5 -225.5q-43 -31 -88 -31q-58 0 -98.5 40.5t-40.5 98.5z " />
<glyph unicode="*" horiz-adv-x="903" d="M63 1087q0 43 25 67t68 24l149 -29l-125 86q-33 33 -33 65q0 33 29 62q31 31 64 31q32 0 65 -33l86 -127l-29 151q0 42 23.5 67.5t65.5 25.5q43 0 66.5 -25.5t23.5 -67.5l-29 -151l86 127q33 33 66 33q32 0 63 -31q29 -29 29 -59q0 -35 -33 -68l-127 -86l152 29 q43 0 67.5 -24t24.5 -67q0 -41 -24.5 -64.5t-67.5 -23.5l-152 29l127 -86q33 -33 33 -65q0 -33 -31 -64q-29 -29 -61 -29q-33 0 -66 33l-86 125l29 -149q0 -42 -23.5 -67.5t-66.5 -25.5q-42 0 -65.5 25.5t-23.5 67.5l29 151l-86 -127q-33 -33 -67 -33q-31 0 -60 29 q-31 31 -31 64q0 32 33 65l127 86l-151 -29q-43 0 -68 23.5t-25 64.5z" />
<glyph unicode="+" d="M102 522q0 55 33 86t90 31h273v272q0 57 30 90t86 33t86.5 -33t30.5 -90v-272h273q57 0 89.5 -31t32.5 -86t-32.5 -85.5t-89.5 -30.5h-273v-273q0 -57 -30.5 -90t-86.5 -33t-86 33t-30 90v273h-273q-57 0 -90 30.5t-33 85.5z" />
<glyph unicode="," horiz-adv-x="460" d="M109 119q0 48 34.5 86.5t79.5 38.5q51 0 87 -38t36 -87v-197q0 -29 -26 -54.5t-54 -25.5q-32 0 -53 17t-29 43l-65 170q-10 23 -10 47z" />
<glyph unicode="-" horiz-adv-x="878" d="M115 588q0 53 33 85t90 32h403q57 0 90 -32t33 -85t-33 -85t-90 -32h-403q-57 0 -90 32t-33 85z" />
<glyph unicode="." horiz-adv-x="464" d="M113 106q0 48 36 86.5t89 38.5q46 0 80 -39t34 -86t-33.5 -80.5t-80.5 -33.5q-55 0 -90 33t-35 81z" />
<glyph unicode="/" horiz-adv-x="735" d="M100 55v8l414 1436q6 19 22.5 32t36.5 13q25 0 44.5 -19t19.5 -42q0 -15 -2 -21l-410 -1415q-3 -22 -21 -38.5t-40 -16.5q-25 0 -44.5 19t-19.5 44z" />
<glyph unicode="0" d="M92 506v524q0 138 69 258t190 192t263 72t263 -72t190.5 -192t69.5 -258v-524q0 -138 -69.5 -258t-190.5 -192t-263 -72t-263 72t-190 192t-69 258zM383 510q0 -92 68.5 -161.5t162.5 -69.5t162 69.5t68 161.5v516q0 92 -68 161.5t-162 69.5t-162.5 -69.5t-68.5 -161.5 v-516z" />
<glyph unicode="1" d="M309 1399q0 57 39.5 97t97.5 40h283q49 0 83 -34t34 -83v-1282q0 -62 -42.5 -103.5t-105.5 -41.5q-62 0 -103.5 42t-41.5 103v1112q0 13 -12 13h-95q-58 0 -97.5 40t-39.5 97z" />
<glyph unicode="2" d="M98 203q0 82 64 149q16 16 149 138.5t289 265t158 143.5q32 31 52.5 74.5t20.5 83.5q0 85 -58.5 144t-143.5 59q-66 0 -119.5 -39.5t-75.5 -102.5q-15 -43 -53.5 -70.5t-85.5 -27.5q-60 0 -102.5 42.5t-42.5 102.5q0 28 8 49q50 150 179.5 244t291.5 94q205 0 350 -145 t145 -350q0 -202 -159 -361q-27 -27 -143 -125.5t-218 -182.5l-102 -85q-4 -4 -4 -6q0 -4 6 -4h481q60 0 104 -44t44 -104t-44 -102.5t-104 -42.5h-680q-83 0 -145 61.5t-62 141.5z" />
<glyph unicode="3" d="M125 412q0 64 34.5 105.5t94.5 41.5q52 0 91.5 -31t51.5 -79q18 -75 75 -124t132 -49q86 0 146.5 68t60.5 162q0 89 -55 158t-135 81q-57 8 -94.5 46.5t-37.5 99.5q0 104 121 147q34 12 57 46t23 71q0 46 -32.5 79.5t-77.5 33.5q-25 0 -48.5 -13.5t-41.5 -32t-37 -37.5 t-43 -32.5t-50 -13.5q-61 0 -99 41.5t-38 99.5q0 42 25 84q52 86 139 137t191 51q157 0 268.5 -112.5t111.5 -270.5q0 -135 -88 -241q-8 -8 -8 -10q0 -6 8 -9q107 -69 170.5 -181t63.5 -243q0 -136 -67.5 -251.5t-183 -182.5t-251.5 -67q-121 0 -224 57t-175 154 q-78 108 -78 217z" />
<glyph unicode="4" d="M66 436q0 56 28 101q566 895 578 913q26 41 68 67.5t89 26.5q78 0 133.5 -55.5t55.5 -134.5v-822q0 -12 12 -12q58 -6 95.5 -43.5t37.5 -93.5q0 -58 -37.5 -96.5t-95.5 -38.5q-12 0 -12 -12v-99q0 -59 -42 -101t-106 -42q-60 0 -102.5 42t-42.5 101v99q0 12 -12 12h-459 q-78 0 -133 55t-55 133zM416 528q0 -8 6 -8h291q12 0 12 12q0 521 -2 521t-6 -4l-299 -514q-2 -2 -2 -7z" />
<glyph unicode="5" d="M94 354q0 58 44.5 101t103.5 43q42 0 78.5 -27.5t56.5 -69.5q27 -59 86.5 -93t132.5 -34q104 0 175 71t71 177q0 104 -71 175t-175 71q-50 0 -98 -23.5t-90 -47t-80 -23.5q-71 0 -124.5 52.5t-53.5 123.5q0 11 4 39l100 487q0 7 2 13q11 61 60.5 103.5t113.5 43.5h442 q58 0 102 -42.5t44 -100.5q0 -59 -44 -102.5t-102 -43.5h-380q-11 0 -15 -12l-37 -186q0 -5 2 -7h9q71 19 145 19q146 0 270 -72.5t196.5 -196.5t72.5 -270t-72.5 -270t-196.5 -196t-270 -72q-157 0 -286.5 81t-194.5 216q-21 48 -21 73z" />
<glyph unicode="6" d="M70 528q0 160 73 275l422 665q50 78 131 78q61 0 103.5 -42.5t42.5 -104.5q0 -43 -29 -88l-168 -250q-2 -2 -2 -6t4 -4q220 -21 366 -164.5t146 -358.5q0 -148 -73 -273.5t-198.5 -198t-273.5 -72.5q-111 0 -211.5 43t-173.5 116t-116 173.5t-43 211.5zM362 528 q0 -109 71.5 -180.5t180.5 -71.5q108 0 180 72t72 180q0 107 -72.5 179.5t-179.5 72.5q-108 0 -180 -72t-72 -180z" />
<glyph unicode="7" d="M170 1393q0 57 41 100t98 43h479q5 0 14.5 1t14.5 1q100 0 170 -65.5t70 -163.5q0 -46 -19 -92l-495 -1137q-18 -42 -53.5 -65t-77.5 -23q-32 0 -62 12q-41 19 -64.5 55t-23.5 78q0 30 12 60l461 1044q0 8 -8 8h-418q-57 0 -98 43.5t-41 100.5z" />
<glyph unicode="8" d="M109 487q0 109 54.5 205t137.5 164q-57 64 -88 125.5t-31 136.5q0 178 127 305t305 127q179 0 306 -127t127 -305q0 -75 -31.5 -136t-89.5 -126q84 -69 139 -164.5t55 -204.5q0 -137 -68 -253.5t-184.5 -184t-253.5 -67.5q-209 0 -357 148t-148 357zM399 487 q0 -89 63 -152t152 -63t151 63t62 152t-62 151t-151 62t-152 -62t-63 -151zM471 1118q0 -58 42.5 -100.5t100.5 -42.5t100 42t42 101q0 58 -42 100t-100 42q-59 0 -101 -42t-42 -100z" />
<glyph unicode="9" d="M70 1001q0 148 72.5 273.5t198 198.5t273.5 73t273.5 -73t198.5 -198.5t73 -273.5q0 -158 -74 -274l-421 -666q-50 -77 -132 -77q-61 0 -103 42.5t-42 104.5q0 43 29 88l168 250q2 2 2 6t-4 4q-144 14 -259.5 81t-184 182.5t-68.5 258.5zM362 1001q0 -107 72.5 -179 t179.5 -72q108 0 180 72t72 179q0 109 -71.5 180.5t-180.5 71.5q-108 0 -180 -72t-72 -180z" />
<glyph unicode=":" horiz-adv-x="468" d="M115 106q0 48 36 86.5t89 38.5q46 0 80 -39t34 -86t-33.5 -80.5t-80.5 -33.5q-55 0 -90 33t-35 81zM115 825q0 55 34.5 90t90.5 35q48 0 81 -35t33 -90q0 -47 -33.5 -80.5t-80.5 -33.5q-55 0 -90 33t-35 81z" />
<glyph unicode=";" horiz-adv-x="462" d="M111 119q0 48 34.5 86.5t79.5 38.5q51 0 87 -38t36 -87v-197q0 -29 -26 -54.5t-54 -25.5q-32 0 -53 17t-29 43l-65 170q-10 23 -10 47zM111 829q0 52 34 87.5t80 35.5q53 0 88 -35t35 -88q0 -46 -35.5 -80t-87.5 -34q-46 0 -80 34t-34 80z" />
<glyph unicode="&#x3c;" horiz-adv-x="1372" d="M100 512q0 39 18 70.5t50 44.5l971 401q15 6 32 6q35 0 59.5 -24.5t24.5 -59.5q0 -28 -15 -49.5t-40 -30.5l-833 -350q-7 -4 -7 -8q0 -2 7 -6l831 -342q25 -9 41 -31t16 -49q0 -35 -24.5 -59.5t-59.5 -24.5q-12 0 -28 4l-975 406q-31 12 -49.5 40.5t-18.5 61.5z" />
<glyph unicode="=" horiz-adv-x="1169" d="M117 354q0 55 33 86t90 31h690q57 0 90 -31t33 -86t-33 -85.5t-90 -30.5h-690q-57 0 -90 30.5t-33 85.5zM117 698q0 55 33 86t90 31h690q57 0 90 -31t33 -86t-33 -85.5t-90 -30.5h-690q-57 0 -90 30.5t-33 85.5z" />
<glyph unicode="&#x3e;" horiz-adv-x="1370" d="M117 84q0 27 16 49t41 31l832 342q6 3 6 6q0 5 -6 8l-834 350q-25 9 -40 30.5t-15 49.5q0 35 24.5 59.5t59.5 24.5q17 0 32 -6l971 -401q32 -13 50 -44.5t18 -70.5q0 -33 -18.5 -61.5t-49.5 -40.5l-975 -406q-16 -4 -28 -4q-35 0 -59.5 24.5t-24.5 59.5z" />
<glyph unicode="?" horiz-adv-x="921" d="M76 1280q0 101 106 188.5t236 87.5q115 0 212 -46t156.5 -133t59.5 -197q0 -72 -18 -132t-47.5 -100t-64.5 -73.5t-70 -60.5t-64.5 -53.5t-47.5 -60.5t-18 -73q0 -36 28.5 -85.5t28.5 -78.5q0 -69 -43 -106.5t-108 -37.5q-35 0 -68 14t-63.5 43t-49 81.5t-18.5 122.5 q0 73 24 139.5t60 112.5t78 92.5t78 82t60 78t24 82.5q0 97 -88 97q-23 0 -53 -23t-55.5 -50t-57.5 -50t-57 -23q-75 0 -117.5 43.5t-42.5 118.5zM279 131q0 58 41.5 99.5t97.5 41.5q58 0 99.5 -41t41.5 -100q0 -56 -41.5 -97.5t-99.5 -41.5q-56 0 -97.5 42t-41.5 97z" />
<glyph unicode="@" horiz-adv-x="1863" d="M113 719q0 177 72 332.5t194 265t288 172.5t349 63q109 0 214.5 -24.5t200 -76t165.5 -124.5t113 -176t42 -223q0 -141 -57 -264t-162 -213q-134 -101 -277 -101q-80 0 -133.5 35t-56.5 115q-53 -76 -116 -113t-150 -37q-134 0 -206.5 78.5t-72.5 220.5q0 212 121.5 354 t294.5 142q84 0 137 -31t82 -98l49 100h139l-129 -516q-10 -36 -10 -51q0 -30 22 -50t58 -20q104 0 189 101q129 129 129 348q0 217 -160.5 348t-435.5 131q-148 0 -284.5 -53.5t-237.5 -146t-161.5 -224.5t-60.5 -281q0 -164 89 -296t243 -205.5t342 -73.5q341 0 547 145 l59 -79q-268 -209 -596 -209q-129 0 -250 30t-227 91t-185.5 147t-125 206.5t-45.5 260.5zM688 649q0 -90 38 -139t112 -49t138 60.5t89 156.5l37 145q6 30 6 60q0 74 -44.5 113.5t-107.5 39.5q-112 0 -190 -114.5t-78 -272.5z" />
<glyph unicode="A" horiz-adv-x="1536" d="M109 135q0 28 12 60l504 1257q39 96 143 96t143 -96l504 -1257q12 -32 12 -60q0 -62 -42.5 -102.5t-106.5 -40.5q-51 0 -84 30.5t-59 88.5l-74 165q-4 11 -17 11h-555q-13 0 -16 -11l-72 -165q-25 -58 -58.5 -88.5t-84.5 -30.5q-64 0 -106.5 40.5t-42.5 102.5zM588 565 q0 -6 8 -6h342q8 0 8 8q0 4 -2 6l-170 433q-2 8 -6 8q-2 0 -3.5 -2t-2.5 -4v-2l-172 -433q-2 -2 -2 -8z" />
<glyph unicode="B" horiz-adv-x="1169" d="M117 147v1242q0 62 42 104.5t103 42.5h295q12 0 18 -2q170 -12 282 -130t112 -284q0 -152 -88 -270q83 -67 130.5 -164t47.5 -209q0 -195 -136 -333.5t-331 -143.5h-330q-61 0 -103 42.5t-42 104.5zM410 305q0 -12 12 -12h160q77 0 130.5 58.5t53.5 137.5 q0 80 -53.5 137.5t-130.5 57.5h-160q-12 0 -12 -12v-367zM410 948q0 -12 12 -12h127q60 4 99.5 50.5t39.5 107.5t-43 105t-108 44h-115q-12 0 -12 -12v-283z" />
<glyph unicode="C" horiz-adv-x="1570" d="M111 768q0 160 62 305t167 250t250 167t305 62q84 0 163 -15.5t130.5 -35.5t98 -47.5t65 -42t32.5 -27.5q21 -18 33.5 -31.5t26.5 -42t14 -59.5q0 -61 -42.5 -103t-104.5 -42q-59 0 -107 45q-135 109 -309 109q-210 -9 -351 -149t-141 -343q0 -131 70.5 -243t183 -177 t238.5 -72q174 0 309 109q48 45 107 45q62 0 104.5 -42t42.5 -103q0 -31 -14 -59.5t-26.5 -42t-33.5 -31.5q-14 -13 -32.5 -27.5t-65 -42t-98 -47.5t-130.5 -35.5t-163 -15.5q-160 0 -305 62t-250 167t-167 250t-62 305z" />
<glyph unicode="D" horiz-adv-x="1503" d="M117 156v1212q0 72 48 120t120 48h336q157 0 300.5 -61.5t246.5 -164.5t164 -245t61 -297t-61 -297t-164 -245t-246.5 -164.5t-300.5 -61.5h-349q-63 0 -109 46.5t-46 109.5zM410 305q0 -7 2 -9.5t10 -2.5h199q211 0 345 132.5t134 342.5q0 212 -128.5 343.5 t-338.5 131.5h-211q-12 0 -12 -12v-926z" />
<glyph unicode="E" horiz-adv-x="1079" d="M117 147v1242q0 62 42 104.5t103 42.5h557q61 0 102.5 -41.5t41.5 -103.5t-41.5 -105t-102.5 -43h-397q-12 0 -12 -12v-301q0 -12 12 -12h397q61 0 102.5 -42t41.5 -104t-41.5 -104.5t-102.5 -42.5h-397q-12 0 -12 -13v-307q0 -12 12 -12h397q61 0 102.5 -43t41.5 -105 t-41.5 -103.5t-102.5 -41.5h-557q-61 0 -103 42.5t-42 104.5z" />
<glyph unicode="F" horiz-adv-x="1064" d="M117 127v1262q0 62 42 104.5t103 42.5h557q61 0 102.5 -41.5t41.5 -103.5t-41.5 -105t-102.5 -43h-397q-12 0 -12 -12v-301q0 -12 12 -12h397q61 0 102.5 -42t41.5 -104t-41.5 -104.5t-102.5 -42.5h-397q-12 0 -12 -13v-485q0 -61 -42 -102t-104 -41t-104.5 41t-42.5 102 z" />
<glyph unicode="G" horiz-adv-x="1792" d="M113 768q0 160 62 305t167 250t250 167t305 62q84 0 163 -15.5t130.5 -35.5t98 -47.5t65 -42t32.5 -27.5q21 -18 33.5 -31.5t26.5 -42t14 -59.5q0 -61 -42.5 -103t-104.5 -42q-59 0 -107 45q-135 109 -309 109q-133 0 -246 -66t-179 -179t-66 -247q0 -133 66 -246.5 t179 -179.5t246 -66q131 0 242.5 64t177.5 172q0 1 1 3t1 3q0 6 -8 6h-385q-61 0 -102.5 43t-41.5 105t41.5 103.5t102.5 41.5h710q26 0 35.5 -11t9.5 -38q0 -160 -62 -305t-167 -250t-250 -167t-305 -62t-305 62t-250 167t-167 250t-62 305z" />
<glyph unicode="H" horiz-adv-x="1343" d="M117 135v1266q0 61 42.5 102t104.5 41t104 -41t42 -102v-471q0 -12 12 -12h500q12 0 12 12v471q0 61 42.5 102t104.5 41t104 -41t42 -102v-1266q0 -61 -42 -102t-104 -41t-104.5 41t-42.5 102v477q0 13 -12 13h-500q-12 0 -12 -13v-477q0 -61 -42 -102t-104 -41 t-104.5 41t-42.5 102z" />
<glyph unicode="I" horiz-adv-x="526" d="M117 135v1266q0 61 42.5 102t104.5 41t104 -41t42 -102v-1266q0 -61 -42 -102t-104 -41t-104.5 41t-42.5 102z" />
<glyph unicode="J" horiz-adv-x="1036" d="M117 272q0 76 65 121q40 21 84 21q83 0 125 -68q9 -34 39.5 -53t69.5 -19q54 0 91.5 39t37.5 95v995q0 61 43.5 101t105.5 40q63 0 103.5 -39.5t40.5 -101.5v-995q0 -177 -123.5 -300.5t-298.5 -123.5q-115 0 -213.5 57t-151.5 154q-18 37 -18 77z" />
<glyph unicode="K" horiz-adv-x="1193" d="M117 135v1266q0 61 42.5 102t104.5 41t104 -41t42 -102q0 -531 2 -531t6 4l373 605q41 65 118 65q45 0 82 -22q68 -44 68 -121q0 -42 -23 -78l-336 -543q-4 -6 -4 -12q0 -8 4 -12l338 -541q23 -38 23 -74q0 -37 -19 -70t-53 -55t-80 -22q-78 0 -118 67q-378 607 -381 607 v-533q0 -61 -42 -102t-104 -41t-104.5 41t-42.5 102z" />
<glyph unicode="L" horiz-adv-x="1024" d="M117 141v1264q0 63 41 103t106 40q62 0 104 -40.5t42 -102.5v-1088q0 -11 7 -17.5t17 -6.5h344q64 0 105 -40.5t41 -105.5q0 -62 -41 -104.5t-105 -42.5h-504q-65 0 -111 40t-46 101z" />
<glyph unicode="M" horiz-adv-x="1789" d="M117 135v1168q0 99 69.5 170t165.5 71q73 0 130.5 -49t78.5 -125l320 -897q3 -10 12 -10q7 0 10 10l320 897q20 75 82 124.5t135 49.5q96 0 165.5 -71t69.5 -170v-1168q0 -55 -47 -99t-108 -44q-56 0 -95 39t-39 96v883q0 8 -4 8q-3 0 -5.5 -3.5t-3.5 -6.5l-1 -4 l-332 -900q-15 -51 -54 -81.5t-89 -30.5q-55 0 -97 30.5t-57 81.5q-297 883 -305 906q-6 14 -12 14q-8 0 -8 -6v-871q0 -63 -43 -109t-103 -46q-62 0 -108.5 42t-46.5 101z" />
<glyph unicode="N" horiz-adv-x="1456" d="M117 135v1223q0 73 57 129.5t131 56.5q104 0 170 -100l529 -864q11 -17 20 -17t16 7.5t7 17.5v213v602q0 61 40.5 101t102.5 40t105.5 -41t43.5 -102v-1223q0 -73 -57 -129.5t-131 -56.5q-104 0 -170 100l-528 864q-11 17 -21 17q-9 0 -15.5 -7.5t-6.5 -17.5v-213v-602 q0 -61 -41 -101t-103 -40t-105.5 41t-43.5 102z" />
<glyph unicode="O" horiz-adv-x="1794" d="M113 768q0 160 62 305t167 250t250 167t305 62t305 -62t250 -167t167 -250t62 -305t-62 -305t-167 -250t-250 -167t-305 -62t-305 62t-250 167t-167 250t-62 305zM406 768q0 -133 66 -246.5t179 -179.5t246 -66q100 0 191.5 39t157 105.5t104.5 157t39 190.5 q0 134 -66 247t-179 179t-247 66q-133 0 -246 -66t-179 -179t-66 -247z" />
<glyph unicode="P" horiz-adv-x="1138" d="M117 145v1241q0 64 41 107t106 43h326q195 0 320.5 -132t125.5 -329q0 -129 -56 -236.5t-159 -171t-231 -63.5h-168q-12 0 -12 -12v-447q0 -63 -44.5 -108t-107.5 -45q-60 0 -100.5 45.5t-40.5 107.5zM410 909q0 -12 12 -12h168q42 0 73.5 18.5t48 47.5t24 57.5t7.5 54.5 t-7.5 53t-24 54t-48 44t-73.5 17h-168q-12 0 -12 -12v-322z" />
<glyph unicode="Q" horiz-adv-x="1794" d="M113 768q0 160 62 305t167 250t250 167t305 62t305 -62t250 -167t167 -250t62 -305q0 -270 -165 -481l51 -47q37 -37 37 -93q0 -61 -39.5 -104t-100.5 -43q-69 0 -114 45q-5 0 -52 47q-184 -108 -401 -108q-160 0 -305 62t-250 167t-167 250t-62 305zM406 768 q0 -133 66 -246.5t179 -179.5t246 -66q98 0 190 39l-32 37q-37 34 -37 90q0 62 40.5 106t98.5 44q47 0 103 -45l45 -51q84 124 84 272q0 134 -66 247t-179 179t-247 66q-133 0 -246 -66t-179 -179t-66 -247z" />
<glyph unicode="R" horiz-adv-x="1146" d="M117 145v1241q0 64 40 107t101 43h332q195 0 320.5 -132t125.5 -329q0 -152 -61 -252.5t-184 -163.5q-5 0 -5 -6v-4l211 -450q15 -30 15 -64q0 -40 -22.5 -74t-61.5 -53q-37 -16 -68 -16q-40 0 -74.5 22t-54.5 60l-254 549q-6 12 -18 12h-37q-12 0 -12 -12v-480 q0 -63 -44.5 -107t-107.5 -44q-60 0 -100.5 45.5t-40.5 107.5zM410 909q0 -12 12 -12h168q42 0 73.5 18.5t48 47.5t24 57.5t7.5 54.5t-7.5 53t-24 54t-48 44t-73.5 17h-168q-12 0 -12 -12v-322z" />
<glyph unicode="S" horiz-adv-x="1103" d="M113 307q0 63 38.5 102.5t94.5 39.5q38 0 68.5 -18t52.5 -43.5t45 -51.5t57 -44t78 -18q65 0 108 46.5t43 109.5q0 32 -6 57.5t-13.5 44t-25 35t-30.5 26t-40.5 21.5t-45 18t-52.5 17q-168 54 -269 167.5t-101 275.5q0 208 121.5 332t326.5 124q76 0 152 -27.5t140 -87 t89 -139.5q10 -30 10 -55q0 -62 -42 -105.5t-103 -43.5q-38 0 -75.5 20.5t-53.5 56.5q-41 86 -135 86q-56 0 -96.5 -45.5t-40.5 -103.5q0 -25 7 -46t23 -39t29.5 -30.5t39 -26t39.5 -20t42.5 -18.5t36.5 -15q199 -86 282.5 -190t83.5 -289q0 -186 -125.5 -316t-306.5 -130 q-81 0 -159 20.5t-143 59t-104.5 102t-39.5 141.5z" />
<glyph unicode="T" horiz-adv-x="1193" d="M109 1384q0 61 43 106.5t98 45.5h692q55 0 99 -45.5t44 -106.5q0 -53 -44.5 -97t-98.5 -44h-188q-1 0 -13 -10v-12v-1094q0 -62 -41 -98.5t-104 -36.5t-105 37t-42 98v1094v12q-1 10 -11 10h-188q-54 0 -97.5 44t-43.5 97z" />
<glyph unicode="U" horiz-adv-x="1243" d="M115 436v965q0 61 42.5 102t104.5 41t104 -41t42 -102v-924q0 -84 69.5 -139t149.5 -55q84 0 146.5 55t62.5 131v932q0 61 42.5 102t104.5 41t103.5 -41t41.5 -102v-965q0 -127 -71 -230.5t-185.5 -159.5t-244.5 -56t-247 56t-191 159.5t-74 230.5z" />
<glyph unicode="V" horiz-adv-x="1413" d="M109 1405q0 62 42.5 102.5t106.5 40.5q53 0 91 -32.5t52 -85.5l299 -906q3 -8 7 -8q2 0 3.5 2t1.5 4l1 2l299 906q14 53 52 85.5t91 32.5q64 0 107 -40.5t43 -102.5q0 -24 -13 -59l-442 -1258q-33 -96 -143 -96q-51 0 -89 25t-55 71l-442 1258q-12 32 -12 59z" />
<glyph unicode="W" horiz-adv-x="1912" d="M127 1401q0 48 30 87.5t79 51.5q14 4 38 4q51 0 89.5 -28t50.5 -76q119 -462 184 -723q12 -51 14 -51t6 4l197 770q12 50 50 77t91 27q49 0 89.5 -29t52.5 -75q119 -462 184 -723q12 -51 14 -51q3 0 7 4l196 770q12 49 50 76.5t89 27.5q25 0 39 -4q49 -12 79 -51.5 t30 -87.5q0 -25 -4 -37l-340 -1255q-16 -60 -48 -88.5t-100 -28.5q-65 5 -92.5 33t-48.5 84q-195 760 -201 760v-1l-194 -759q-15 -60 -47.5 -88.5t-100.5 -28.5q-65 5 -92.5 33t-48.5 84l-338 1255q-4 12 -4 37z" />
<glyph unicode="X" horiz-adv-x="1347" d="M133 141q0 36 23 74l338 541q4 8 4 12l-4 12l-336 543q-25 39 -25 78q0 76 70 121q37 22 82 22q77 0 118 -65l263 -422q3 -6 8 -6t8 6l262 422q41 65 119 65q45 0 82 -22q67 -43 67 -121q0 -44 -22 -78l-336 -543q-4 -6 -4 -12q0 -8 4 -12l338 -541q22 -36 22 -74 q0 -79 -71 -125q-41 -24 -82 -24q-77 0 -119 67l-258 418q-3 6 -10 6t-10 -6l-258 -418q-41 -65 -121 -65q-46 0 -80 22t-53 55t-19 70z" />
<glyph unicode="Y" horiz-adv-x="1216" d="M109 1393q0 64 39 107.5t100 43.5q45 0 84 -24.5t57 -67.5l213 -530q4 -7 6 -7t6 7l213 530q18 43 56.5 67.5t85.5 24.5q61 0 100 -43.5t39 -107.5q0 -37 -12 -60l-340 -780v-406q0 -64 -41.5 -109.5t-104.5 -45.5q-60 0 -103.5 46t-43.5 109v406l-342 780q-12 23 -12 60 z" />
<glyph unicode="Z" horiz-adv-x="1200" d="M115 174q0 50 32 105q37 59 96.5 155t186 299.5t209.5 339t82 135.5q6 12 6 19q0 16 -35 16h-432q-63 0 -104 40.5t-41 102.5q0 64 41 107t104 43h645q72 0 125 -51t53 -123q0 -50 -32 -105q1 0 -143.5 -230t-290.5 -467t-146 -251q0 -16 35 -16h432q63 0 104 -40.5 t41 -102.5q0 -64 -41 -107t-104 -43h-645q-72 0 -125 51t-53 123z" />
<glyph unicode="[" horiz-adv-x="727" d="M117 -178v1726q0 51 36 87t87 36h254q51 0 86.5 -36t35.5 -87t-35.5 -87t-86.5 -36h-74q-10 0 -10 -12v-1456q0 -12 10 -12h74q51 0 86.5 -36t35.5 -87t-35.5 -87t-86.5 -36h-254q-51 0 -87 36t-36 87z" />
<glyph unicode="\" horiz-adv-x="737" d="M100 1483q0 23 19.5 42t44.5 19q20 0 36.5 -13t22.5 -32l414 -1436v-8q0 -25 -19.5 -44t-44.5 -19q-22 0 -40 16.5t-21 38.5l-410 1415q-2 6 -2 21z" />
<glyph unicode="]" horiz-adv-x="727" d="M111 -178q0 51 35.5 87t86.5 36h74q10 0 10 12v1456q0 12 -10 12h-74q-51 0 -86.5 36t-35.5 87t35.5 87t86.5 36h254q51 0 87 -36t36 -87v-1726q0 -51 -36 -87t-87 -36h-254q-51 0 -86.5 36t-35.5 87z" />
<glyph unicode="^" horiz-adv-x="1146" d="M109 805q0 32 26 82l330 600q34 61 108 61q75 0 109 -61l330 -600q26 -50 26 -82q0 -40 -29.5 -61t-74.5 -21q-73 0 -105 45l-256 473l-256 -473q-32 -45 -104 -45q-45 0 -74.5 21t-29.5 61z" />
<glyph unicode="_" horiz-adv-x="1372" d="M117 -131h1138v-145h-1138v145z" />
<glyph unicode="`" horiz-adv-x="694" d="M109 1432q0 42 31.5 81t72.5 39q31 0 74 -18l245 -102q25 -12 39.5 -33.5t14.5 -44.5q0 -53 -30 -97.5t-73 -44.5q-20 0 -41 7q-4 1 -15.5 6t-20.5 8l-218 84q-79 29 -79 115z" />
<glyph unicode="a" horiz-adv-x="1202" d="M53 512q0 143 71 264.5t193 192.5t265 71q148 0 274 -77q37 69 119 69h12q65 -6 95 -54t30 -116v-702q0 -69 -32 -118.5t-93 -49.5h-12q-83 0 -119 67q-122 -75 -274 -75q-143 0 -265 71t-193 192.5t-71 264.5zM330 512q0 -107 73 -180.5t179 -73.5q107 0 179.5 73.5 t72.5 180.5t-72.5 180.5t-179.5 73.5q-106 0 -179 -73.5t-73 -180.5z" />
<glyph unicode="b" horiz-adv-x="1232" d="M92 160v1114q0 81 35 125.5t106 44.5q61 0 99.5 -43t38.5 -127v-299q117 65 254 65q143 0 264.5 -71t192.5 -192.5t71 -264.5t-71 -264.5t-192.5 -192.5t-264.5 -71t-275 73q-40 -65 -119 -65q-63 2 -101 47.5t-38 120.5zM373 512q0 -107 72.5 -180.5t179.5 -73.5 q106 0 179 73.5t73 180.5t-73 180.5t-179 73.5q-107 0 -179.5 -73.5t-72.5 -180.5z" />
<glyph unicode="c" horiz-adv-x="1153" d="M72 514q0 143 70.5 264t192.5 191.5t267 70.5q131 0 249.5 -66t184.5 -165q23 -35 23 -84q0 -52 -34.5 -82.5t-88.5 -30.5h-18q-30 3 -56.5 20t-49 38t-48.5 42t-66.5 35.5t-91.5 14.5q-104 0 -177 -72.5t-73 -175.5q0 -104 73 -177t177 -73q68 0 120 32.5t101 100.5 q50 62 117 62q19 0 31 -2q106 -17 106 -129q0 -27 -10 -54q-69 -132 -193.5 -211t-275.5 -79q-145 0 -267 70.5t-192.5 192.5t-70.5 267z" />
<glyph unicode="d" horiz-adv-x="1241" d="M92 512q0 143 71 264.5t193 192.5t265 71q136 0 253 -65v299q0 84 38.5 127t99.5 43q71 0 106 -44.5t35 -125.5v-1114q0 -75 -38.5 -121t-102.5 -47q-77 0 -117 65q-132 -73 -274 -73q-143 0 -265 71t-193 192.5t-71 264.5zM369 512q0 -107 73 -180.5t179 -73.5 q107 0 179 73t72 181t-72 181t-179 73q-106 0 -179 -73.5t-73 -180.5z" />
<glyph unicode="e" horiz-adv-x="1175" d="M57 514q0 143 70.5 264t193 191.5t267.5 70.5q134 0 247.5 -61.5t184.5 -168.5t84 -239v-12q0 -57 -41 -99t-98 -42h-598q-7 0 -7 -10q31 -70 93 -117t135 -47q46 0 86.5 11t65 24.5t55.5 28t57 20.5q24 4 33 4q48 0 77 -30.5t29 -74.5q0 -60 -47 -104 q-142 -139 -356 -139q-145 0 -267.5 70.5t-193 192.5t-70.5 267zM365 629q0 -6 8 -6h426q8 0 8 4q0 1 -1 3t-1 3q-33 59 -90.5 94t-126.5 35q-70 0 -130 -35t-91 -92q0 -1 -1 -3t-1 -3z" />
<glyph unicode="f" horiz-adv-x="972" d="M68 901q0 54 38.5 88.5t114.5 34.5h68v119q0 139 71 217t205 78h117q74 0 118 -32.5t44 -86.5q0 -56 -38 -89.5t-114 -33.5h-12q-59 0 -86 -20t-27 -76v-76h183q74 0 112.5 -34.5t38.5 -88.5q0 -57 -38 -92t-113 -35h-183v-624q0 -84 -38 -126t-99 -42q-63 0 -102 42 t-39 126v624h-68q-76 0 -114.5 35t-38.5 92z" />
<glyph unicode="g" horiz-adv-x="1245" d="M92 512q0 143 71 264.5t193 192.5t265 71q142 0 274 -73q40 65 119 65q63 -2 101 -47.5t38 -120.5v-755q0 -153 -75 -284t-206 -208.5t-286 -77.5q-100 0 -198 38.5t-169 105.5q-47 47 -47 104q0 50 36.5 86.5t88.5 36.5q44 0 96 -41q101 -80 201 -80q108 0 188.5 73.5 t94.5 180.5l-3 6q-117 -65 -253 -65q-143 0 -265 71t-193 192.5t-71 264.5zM369 512q0 -107 73 -180.5t179 -73.5q107 0 179 73t72 181t-72 181t-179 73q-106 0 -179 -73.5t-73 -180.5z" />
<glyph unicode="h" horiz-adv-x="1095" d="M92 160v1114q0 81 35 125.5t106 44.5q61 0 99.5 -41.5t38.5 -124.5v-274q86 36 176 36q216 0 336.5 -118.5t120.5 -333.5v-428q0 -84 -38.5 -126t-99.5 -42q-63 0 -102 42t-39 126v424q0 74 -52.5 126t-125.5 52t-125.5 -52t-52.5 -126v-424q0 -78 -36 -123t-91 -45h-17 q-61 2 -97 43.5t-36 124.5z" />
<glyph unicode="i" horiz-adv-x="462" d="M92 160q0 -84 39 -126t102 -42q61 0 99.5 42t38.5 126v702q0 84 -38.5 127t-99.5 43q-63 0 -102 -43t-39 -127v-702zM92 1249q0 56 41.5 98t99.5 42q55 0 97.5 -42.5t42.5 -97.5q0 -58 -42 -99.5t-98 -41.5q-59 0 -100 41t-41 100z" />
<glyph unicode="j" horiz-adv-x="462" d="M-39 -319q0 -59 41.5 -100.5t99.5 -41.5h11q37 0 72 7t69.5 25t59.5 45.5t41 72t16 100.5v1077q0 84 -38.5 127t-99.5 43q-63 0 -102 -43t-39 -127v-995q0 -44 -24 -55q-107 -49 -107 -135zM92 1249q0 56 41.5 98t99.5 42q55 0 97.5 -42.5t42.5 -97.5q0 -58 -42 -99.5 t-98 -41.5q-59 0 -100 41t-41 100z" />
<glyph unicode="k" horiz-adv-x="925" d="M92 160v1114q0 84 39 127t102 43q61 0 99.5 -43t38.5 -127v-662q0 -6 2 -6t6 4l225 363q35 59 109 59q37 0 73 -20q60 -38 60 -107q0 -37 -21 -71l-192 -308q-4 -8 -4 -10q0 -4 4 -12l196 -309q23 -38 23 -72q0 -68 -61 -107q-36 -20 -74 -20q-73 0 -111 59l-231 367 q-4 0 -4 -10v-252q0 -84 -38.5 -126t-99.5 -42q-63 0 -102 42t-39 126z" />
<glyph unicode="l" horiz-adv-x="462" d="M92 160v1114q0 84 39 127t102 43q61 0 99.5 -43t38.5 -127v-1114q0 -84 -38.5 -126t-99.5 -42q-63 0 -102 42t-39 126z" />
<glyph unicode="m" horiz-adv-x="1728" d="M90 160v719q0 79 39.5 120t101.5 41q69 0 109 -55q79 55 207 55q196 0 317 -102q121 102 318 102q216 0 336 -118.5t120 -333.5v-428q0 -84 -38 -126t-99 -42q-63 0 -102 42t-39 126v424q0 74 -52 126t-126 52q-71 0 -122.5 -48t-55.5 -118v-436q0 -84 -38.5 -126 t-99.5 -42q-63 0 -102 42t-39 126v424q0 74 -52.5 126t-125.5 52q-71 0 -122.5 -48t-55.5 -118v-436q0 -81 -39.5 -125.5t-96.5 -44.5q-138 0 -143 170z" />
<glyph unicode="n" horiz-adv-x="1091" d="M90 160v719q0 79 39.5 120t101.5 41q69 0 109 -55q79 55 207 55q216 0 336.5 -118.5t120.5 -333.5v-428q0 -84 -38.5 -126t-99.5 -42q-63 0 -102 42t-39 126v424q0 74 -52.5 126t-125.5 52q-71 0 -122.5 -48t-55.5 -118v-436q0 -81 -39.5 -125.5t-96.5 -44.5 q-138 0 -143 170z" />
<glyph unicode="o" horiz-adv-x="1191" d="M72 514q0 143 70.5 264t192.5 191.5t267 70.5q143 0 264 -70.5t191.5 -191.5t70.5 -264q0 -145 -70.5 -267t-191.5 -192.5t-264 -70.5q-145 0 -267 70.5t-192.5 192.5t-70.5 267zM352 514q0 -104 73 -177t177 -73q103 0 175.5 73t72.5 177q0 103 -72.5 175.5t-175.5 72.5 q-104 0 -177 -72.5t-73 -175.5z" />
<glyph unicode="p" horiz-adv-x="1230" d="M92 -250v1114q0 75 38.5 121t102.5 47q77 0 117 -65q132 73 275 73t264.5 -71t192.5 -192.5t71 -264.5t-71 -264.5t-192.5 -192.5t-264.5 -71q-137 0 -254 65v-299q0 -84 -38.5 -127t-99.5 -43q-71 0 -106 44.5t-35 125.5zM373 512q0 -107 72.5 -180.5t179.5 -73.5 q106 0 179 73.5t73 180.5t-73 180.5t-179 73.5q-107 0 -179.5 -73.5t-72.5 -180.5z" />
<glyph unicode="q" horiz-adv-x="1241" d="M92 512q0 143 71 264.5t193 192.5t265 71q142 0 274 -73q40 65 119 65q63 -2 101 -47.5t38 -120.5v-1114q0 -81 -35 -125.5t-106 -44.5q-61 0 -99.5 43t-38.5 127v299q-117 -65 -253 -65q-143 0 -265 71t-193 192.5t-71 264.5zM369 512q0 -107 73 -180.5t179 -73.5 q107 0 179 73t72 181t-72 181t-179 73q-106 0 -179 -73.5t-73 -180.5z" />
<glyph unicode="r" horiz-adv-x="757" d="M90 160v719q0 79 39.5 120t101.5 41q69 0 109 -55q79 55 207 55q55 0 97 -42t42 -97q0 -56 -41 -95.5t-98 -45.5q-73 -8 -123.5 -52t-54.5 -112v-436q0 -81 -39.5 -125.5t-96.5 -44.5q-138 0 -143 170z" />
<glyph unicode="s" horiz-adv-x="735" d="M59 205q0 57 36 98t93 41q25 0 45 -9.5t32.5 -23.5t24 -28t28 -23.5t36.5 -9.5t39 17.5t19 41.5q0 32 -28.5 59t-64.5 44q-12 4 -18 8q-35 17 -54.5 27.5t-57.5 39t-59.5 58t-39.5 79t-18 107.5q0 140 83 224.5t222 84.5q107 0 193.5 -71.5t86.5 -155.5q0 -59 -35 -100 t-90 -41q-36 0 -57.5 15.5t-48.5 55.5q-16 31 -49 31q-20 0 -33.5 -14.5t-13.5 -38.5q0 -29 25 -54t62.5 -43t81.5 -47t81.5 -62.5t62.5 -92.5t25 -135q0 -126 -86 -214.5t-209 -88.5q-134 0 -224 55.5t-90 165.5z" />
<glyph unicode="t" horiz-adv-x="884" d="M68 901q0 54 38.5 88.5t114.5 34.5h88v125q0 84 39.5 127t102.5 43q60 0 98.5 -43t38.5 -127v-125h84q74 0 112.5 -34.5t38.5 -88.5q0 -57 -38 -92t-113 -35h-84v-614q0 -84 -38 -126t-99 -42q-64 0 -103 42t-39 126v614h-88q-76 0 -114.5 35t-38.5 92z" />
<glyph unicode="u" horiz-adv-x="1095" d="M90 436v428q0 84 38 126t99 42q64 0 103 -42t39 -126v-424q0 -74 52.5 -126t125.5 -52q71 0 122.5 48t55.5 118v436q0 81 39 125.5t96 44.5q139 0 144 -170v-719q0 -79 -40 -120t-102 -41q-68 0 -108 55q-79 -55 -207 -55q-216 0 -336.5 118.5t-120.5 333.5z" />
<glyph unicode="v" horiz-adv-x="978" d="M76 899q0 60 40.5 98.5t100.5 38.5q96 0 137 -112l131 -449q0 -8 4 -8q2 0 3.5 2t2.5 4l1 2l129 449q14 51 49.5 81.5t85.5 30.5q61 0 102 -39t41 -98q0 -23 -12 -55l-264 -760q-34 -92 -138 -92q-47 0 -83.5 24t-51.5 68l-266 760q-12 32 -12 55z" />
<glyph unicode="w" horiz-adv-x="1476" d="M63 899q0 47 29 84t76 49q18 6 39 6q46 0 82.5 -27.5t46.5 -72.5q69 -281 112 -465q11 -47 13 -47t6 4l135 504q12 45 48.5 71.5t84.5 26.5q46 0 84 -27t51 -71q74 -251 127 -437q13 -45 15.5 -53t3.5 -8q2 0 6 4l113 498q10 45 47 72.5t84 27.5q21 0 39 -6 q46 -12 74 -48.5t28 -82.5q0 -25 -4 -37l-207 -762q-15 -57 -44.5 -83.5t-94.5 -26.5q-120 10 -160 110q-3 7 -36 108q-120 358 -130 359q-148 -442 -158 -467q-44 -110 -165 -110q-62 5 -88.5 31t-47.5 79l-204 762q-5 30 -5 35z" />
<glyph unicode="x" horiz-adv-x="907" d="M76 129q0 39 20 72l191 301q4 8 4 10q0 4 -4 12l-189 299q-22 32 -22 74q0 74 65 115q39 22 78 22q75 0 113 -63l117 -223q3 -7 8 -7t8 7l117 223q38 63 112 63q39 0 78 -22q66 -41 66 -115q0 -36 -23 -74l-186 -299q-4 -4 -4 -12q0 -6 4 -10l192 -301q21 -35 21 -70 q0 -76 -68 -119q-39 -22 -74 -22q-75 0 -116 63l-117 226q-4 4 -10 4q-8 0 -8 -4l-115 -226q-41 -63 -117 -63q-35 0 -74 22q-67 40 -67 117z" />
<glyph unicode="y" horiz-adv-x="976" d="M76 899q0 60 40.5 98.5t100.5 38.5q96 0 137 -112l131 -449q2 -8 4 -8t3.5 2t2.5 4l1 2l129 449q14 51 49.5 81.5t85.5 30.5q61 0 102 -39t41 -98q0 -23 -12 -55l-395 -1153q-12 -50 -49 -81.5t-87 -31.5q-61 0 -102 39t-41 98q0 24 12 56l111 317q2 6 2 18q0 11 -2 17 l-252 721q-12 32 -12 55z" />
<glyph unicode="z" horiz-adv-x="874" d="M78 164q0 47 28 94q21 29 54.5 76.5t104.5 148t117 167.5t44 67q8 11 8 16q0 17 -35 17h-186q-57 0 -96 38.5t-39 96.5q0 59 39 99t96 40h410q69 0 119.5 -48.5t50.5 -115.5q0 -44 -33 -94q1 0 -79.5 -112.5t-162.5 -231.5t-82 -131q0 -15 31 -15h188q59 0 98.5 -39.5 t39.5 -97.5q0 -57 -40 -98t-98 -41h-409q-68 0 -118 48.5t-50 115.5z" />
<glyph unicode="{" horiz-adv-x="966" d="M100 696q0 38 29.5 68t69.5 33q105 7 152.5 72.5t47.5 199.5v260q0 139 21 210t88 112q76 45 258 45q37 0 63.5 -25.5t26.5 -62.5t-25.5 -62.5t-62.5 -25.5q-95 -9 -124.5 -57t-29.5 -169v-262q0 -150 -43.5 -224t-171.5 -108q-8 0 -8 -4t8 -4q128 -34 171.5 -108 t43.5 -224v-262q0 -121 29.5 -168.5t124.5 -56.5q37 0 62.5 -25.5t25.5 -62.5t-26.5 -62.5t-63.5 -25.5q-182 0 -258 45q-68 42 -88.5 112.5t-20.5 208.5v261q0 134 -47.5 199.5t-152.5 74.5q-36 0 -67.5 28t-31.5 70z" />
<glyph unicode="|" horiz-adv-x="466" d="M117 98v1356q0 57 30 90t86 33t86.5 -33t30.5 -90v-1356q0 -57 -30.5 -90t-86.5 -33t-86 33t-30 90z" />
<glyph unicode="}" horiz-adv-x="966" d="M111 -215q0 37 25.5 62.5t62.5 25.5q94 9 123.5 56.5t29.5 168.5v262q0 150 43.5 224t171.5 108q8 0 8 4t-8 4q-128 34 -171.5 108t-43.5 224v262q0 122 -29.5 169.5t-123.5 56.5q-37 0 -62.5 25.5t-25.5 62.5t26.5 62.5t63.5 25.5q182 0 258 -45q67 -41 87.5 -112 t20.5 -210v-260q0 -134 48 -199.5t153 -72.5q40 -3 69 -33t29 -68q0 -42 -31 -70t-67 -28q-105 -9 -153 -74.5t-48 -199.5v-261q0 -139 -20.5 -209.5t-87.5 -111.5q-76 -45 -258 -45q-37 0 -63.5 25.5t-26.5 62.5z" />
<glyph unicode="~" horiz-adv-x="1290" d="M115 446q0 101 85 180t226 79q65 0 151.5 -35t163.5 -70t119 -35q31 0 58 13t46.5 31.5t37.5 36.5t39.5 31t45.5 13q46 0 67.5 -29t21.5 -71q0 -101 -85.5 -179.5t-226.5 -78.5q-65 0 -151.5 35t-163.5 69.5t-119 34.5q-31 0 -58 -13t-46.5 -31.5t-37.5 -36.5t-39.5 -31 t-45.5 -13q-46 0 -67 29t-21 71z" />
<glyph unicode="&#xa1;" horiz-adv-x="462" d="M92 -252q0 -84 39 -126t102 -42q61 0 99.5 42t38.5 126v856q0 84 -38.5 127t-99.5 43q-63 0 -102 -43t-39 -127v-856zM92 991q0 56 41.5 97.5t99.5 41.5q56 0 98 -42t42 -97q0 -58 -42 -99.5t-98 -41.5q-59 0 -100 41t-41 100z" />
<glyph unicode="&#xa2;" horiz-adv-x="1153" d="M72 514q0 180 108.5 320t278.5 186v76q0 57 30 90t86 33t86.5 -33t30.5 -90v-66q106 -20 198 -80.5t146 -140.5q23 -31 23 -76v-8q-2 -44 -33.5 -79.5t-81.5 -35.5q-38 0 -69.5 20.5t-52 47t-55.5 56t-75 42.5v-524q88 33 156 133q42 66 110 66q51 0 87 -36t36 -87 q0 -27 -10 -54q-59 -111 -158 -185.5t-221 -96.5v-45q0 -57 -30.5 -90t-86.5 -33t-86 33t-30 90v55q-170 46 -278.5 187.5t-108.5 324.5zM326 514q0 -75 36 -138.5t97 -99.5v476q-61 -37 -97 -100.5t-36 -137.5z" />
<glyph unicode="&#xa3;" horiz-adv-x="1327" d="M113 801q0 50 27 82t75 41q-22 103 -22 139q0 211 139 350t350 139q232 0 377 -145q51 -44 51 -113q0 -63 -42 -105t-105 -42q-83 0 -123 63q-47 47 -154 47q-85 0 -142 -53t-57 -125q0 -65 45 -155h287q60 0 94.5 -32.5t34.5 -90.5t-34.5 -90.5t-94.5 -32.5h-192 q44 -74 66 -129.5t22 -118.5q0 -50 -6.5 -73.5t-26.5 -59.5h86q90 0 133.5 38.5t46.5 117.5v14q0 51 37.5 88t91.5 37q60 0 100 -37t40 -90q0 -132 -65.5 -238.5t-180 -166.5t-256.5 -60h-453q-63 0 -105 42t-42 105t42 105.5t105 42.5h64q40 0 67 28.5t27 82.5v10 q-2 37 -43.5 120t-91.5 142h-43q-60 0 -94.5 32.5t-34.5 90.5z" />
<glyph unicode="&#xa4;" horiz-adv-x="1443" d="M115 1178l125 125l202 -203q80 45 145 67.5t142 22.5q68 0 130.5 -23.5t137.5 -66.5l203 200l125 -122l-199 -199q93 -142 93 -283q0 -124 -89 -274l199 -199l-123 -125l-198 199q-133 -94 -289 -94q-123 0 -281 92l-198 -197l-123 125l196 199q-88 128 -88 276 q0 124 92 279zM434 698q0 -117 85.5 -202.5t203.5 -85.5t202.5 84.5t84.5 203.5t-84.5 205t-202.5 86t-203.5 -86t-85.5 -205z" />
<glyph unicode="&#xa5;" horiz-adv-x="1359" d="M109 655q0 37 24 59.5t62 22.5h260l-86 193h-174q-38 0 -62 23t-24 61q0 37 24 59.5t62 22.5h102l-104 237q-13 25 -13 60q0 64 39 107.5t100 43.5q46 0 85 -24.5t57 -67.5l213 -530q4 -7 6 -7t6 7l213 530q18 44 56 68t85 24q61 0 100.5 -43.5t39.5 -107.5 q0 -35 -13 -60l-104 -237h102q38 0 62 -22.5t24 -59.5q0 -38 -24 -61t-62 -23h-174l-84 -193h258q38 0 62 -22.5t24 -59.5q0 -38 -24 -61t-62 -23h-329l-9 -22v-402q0 -64 -42.5 -109.5t-102.5 -45.5t-103.5 46t-43.5 109v402l-11 22h-329q-38 0 -62 23t-24 61z" />
<glyph unicode="&#xa6;" horiz-adv-x="464" d="M117 98v398q0 57 30 89.5t86 32.5t86.5 -33t30.5 -89v-398q0 -57 -30.5 -90t-86.5 -33t-86 33t-30 90zM117 1057v397q0 57 30 90t86 33t86.5 -33t30.5 -90v-397q0 -57 -30.5 -90t-86.5 -33t-86 33t-30 90z" />
<glyph unicode="&#xa7;" horiz-adv-x="1316" d="M113 600q0 114 43.5 194.5t138.5 157.5q-51 57 -73.5 103t-22.5 112q0 178 128.5 281.5t317.5 103.5q57 0 120.5 -9t133.5 -32t125 -56t91 -87t36 -119q0 -57 -40.5 -101t-96.5 -44q-34 0 -66 18.5t-59.5 44.5t-56 52t-67.5 44.5t-83 18.5q-61 0 -106.5 -40t-45.5 -101 q0 -40 31.5 -70.5t72 -46.5t114 -43.5t122.5 -52.5q75 -31 126 -58.5t103.5 -69t79.5 -97t27 -123.5q0 -86 -26.5 -152.5t-71 -114t-119.5 -98.5q45 -60 66.5 -107t21.5 -108q0 -87 -35.5 -159.5t-96 -119.5t-138 -72.5t-162.5 -25.5q-120 0 -237.5 43t-194 115.5 t-76.5 150.5q0 66 48.5 110t115.5 44q30 0 57.5 -20t51 -48t49.5 -56t64.5 -48t84.5 -20q56 0 103 31.5t47 84.5q0 24 -8.5 45t-28 39t-39 31.5t-53.5 28.5t-58 24.5t-67.5 25t-67.5 25.5q-55 21 -96.5 42t-86.5 53.5t-74 69.5t-47.5 90t-18.5 116zM420 635q0 -49 26 -80.5 t78 -56.5l258 -109q51 30 78 64.5t27 85.5q0 96 -152 153l-225 88q-90 -68 -90 -145z" />
<glyph unicode="&#xa8;" horiz-adv-x="927" d="M115 1399q0 58 40 97.5t99 39.5q57 0 97 -39.5t40 -97.5q0 -57 -40 -97t-97 -40q-58 0 -98.5 40t-40.5 97zM537 1399q0 58 40 97.5t97 39.5q59 0 99 -39.5t40 -97.5q0 -57 -40.5 -97t-98.5 -40q-57 0 -97 40t-40 97z" />
<glyph unicode="&#xa9;" horiz-adv-x="1710" d="M113 737q0 150 59.5 288t159.5 237.5t237 159t287 59.5q204 0 375 -100.5t268.5 -271.5t97.5 -372q0 -150 -58 -286.5t-156 -236.5t-236 -159t-291 -59q-200 0 -371 100t-271.5 270.5t-100.5 370.5zM225 737q0 -171 84 -315.5t229.5 -228.5t317.5 -84q128 0 246 49.5 t204 133.5t137.5 200.5t51.5 244.5q0 129 -51.5 246t-137.5 201t-204 134t-246 50q-129 0 -246 -50t-201 -134t-134 -201t-50 -246zM481 737q0 161 112 273t273 112q153 0 248 -80q33 -23 33 -63q0 -35 -22 -57.5t-56 -22.5t-55 21q-48 43 -148 43q-92 0 -158.5 -65.5 t-66.5 -156.5q0 -92 66.5 -158.5t158.5 -66.5q100 0 148 43q21 21 55 21t56 -22.5t22 -57.5q0 -41 -33 -64q-95 -80 -248 -80q-161 0 -273 111t-112 270z" />
<glyph unicode="&#xaa;" horiz-adv-x="860" d="M70 1130q0 146 104 250.5t250 104.5q99 0 184 -53q23 47 82 47h8q32 0 54.5 -22.5t25.5 -59.5q4 -20 4 -31v-471q0 -17 -4 -37q-4 -34 -27 -55t-53 -21h-8q-59 0 -82 45q-82 -51 -184 -51q-146 0 -250 104t-104 250zM256 1130q0 -72 48.5 -120.5t119.5 -48.5 q72 0 121 48.5t49 120.5t-49 121t-121 49q-71 0 -119.5 -49t-48.5 -121z" />
<glyph unicode="&#xab;" horiz-adv-x="1067" d="M111 565q0 46 47 111l190 270q30 35 86 35q52 0 82.5 -32t30.5 -77q0 -41 -19 -75l-157 -240l157 -233q19 -34 19 -66q0 -54 -32 -89.5t-85 -35.5q-66 0 -98 49l-203 314q-18 26 -18 69zM514 565q0 55 45 111l193 270q30 35 84 35q52 0 83 -32t31 -77q0 -44 -22 -75 l-154 -240l154 -233q22 -31 22 -66q0 -54 -33 -89.5t-86 -35.5q-62 0 -98 49l-201 314q-18 26 -18 69z" />
<glyph unicode="&#xac;" horiz-adv-x="1290" d="M100 741q0 55 33 86t90 31h828q57 0 90 -33.5t33 -89.5v-452q0 -57 -30.5 -90t-86.5 -33t-86.5 33t-30.5 90v342h-717q-57 0 -90 30.5t-33 85.5z" />
<glyph unicode="&#xad;" horiz-adv-x="878" d="M115 588q0 53 33 85t90 32h403q57 0 90 -32t33 -85t-33 -85t-90 -32h-403q-57 0 -90 32t-33 85z" />
<glyph unicode="&#xae;" horiz-adv-x="1792" d="M113 768q0 210 106 391t286.5 287t389.5 106q162 0 307.5 -62.5t250 -168.5t165.5 -250.5t61 -302.5t-61 -302.5t-165.5 -250.5t-250 -168.5t-307.5 -62.5q-209 0 -389.5 106t-286.5 287t-106 391zM231 768q0 -181 89 -334.5t241.5 -242.5t333.5 -89q182 0 338 89 t248 242.5t92 334.5t-92 334.5t-248 242.5t-338 89q-181 0 -333.5 -89t-241.5 -242.5t-89 -334.5zM653 399v736q0 39 19 63.5t57 24.5h199q124 0 196 -77t72 -196q0 -113 -55.5 -184t-147.5 -80q-2 0 -2 -6l152 -248q14 -32 14 -53q0 -46 -43 -60q-23 -10 -41 -10 q-44 0 -69 49q-183 308 -187 308q-6 0 -6 -4v-263q0 -39 -21.5 -64.5t-60.5 -25.5q-37 0 -56.5 26t-19.5 64zM811 819q0 -8 8 -8h103q54 0 84 40.5t30 98.5q0 55 -30 93t-84 38h-103q-8 0 -8 -6v-256z" />
<glyph unicode="&#xaf;" horiz-adv-x="876" d="M115 1378q0 58 36.5 87.5t96.5 29.5h381q60 0 96.5 -29.5t36.5 -87.5t-36 -87t-97 -29h-381q-61 0 -97 29t-36 87z" />
<glyph unicode="&#xb0;" horiz-adv-x="884" d="M113 1153q0 137 96.5 233.5t232.5 96.5t233 -96.5t97 -233.5t-97 -233.5t-233 -96.5t-232.5 96.5t-96.5 233.5zM252 1153q0 -78 56 -134t134 -56t134.5 56t56.5 134t-56.5 134t-134.5 56t-134 -56t-56 -134z" />
<glyph unicode="&#xb1;" horiz-adv-x="1306" d="M111 129q0 55 32.5 86t89.5 31h840q57 0 90 -31t33 -86t-33 -86t-90 -31h-840q-57 0 -89.5 31t-32.5 86zM111 684q0 55 32.5 86t89.5 31h304v131q0 57 30 90t86 33t86.5 -33t30.5 -90v-131h303q57 0 90 -31t33 -86t-33 -86t-90 -31h-303v-131q0 -57 -30.5 -90t-86.5 -33 t-86 33t-30 90v131h-304q-57 0 -89.5 31t-32.5 86z" />
<glyph unicode="&#xb2;" horiz-adv-x="735" d="M74 737q0 48 39 90q9 10 90.5 85t171.5 157t96 88q45 42 45 96q0 51 -35.5 87t-87.5 36q-39 0 -72 -24.5t-45 -61.5q-9 -27 -31.5 -43t-51.5 -16q-37 0 -63 25.5t-26 62.5q0 11 7 29q30 90 107.5 147t174.5 57q125 0 213 -87.5t88 -211.5q0 -121 -98 -219 q-17 -17 -87.5 -77t-132.5 -111l-61 -51q0 -4 4 -4h291q35 0 61.5 -27t26.5 -62q0 -36 -26 -62t-62 -26h-411q-51 0 -88 36.5t-37 86.5z" />
<glyph unicode="&#xb3;" horiz-adv-x="733" d="M72 864q0 39 21 64.5t57 25.5q31 0 54.5 -19t31.5 -48q11 -45 45 -74t79 -29q52 0 88.5 40.5t36.5 97.5q0 54 -33 95.5t-81 49.5q-34 5 -57 28t-23 60q0 64 74 88q20 8 34.5 28.5t14.5 43.5q0 28 -20 47.5t-48 19.5q-27 0 -65 -38.5t-68 -38.5q-37 0 -59.5 24.5 t-22.5 59.5q0 29 14 51q31 52 84 83t115 31q95 0 163 -68t68 -163q0 -82 -53 -145q-6 -6 -6 -9q0 -1 6 -4q65 -41 103.5 -108.5t38.5 -147.5q0 -124 -89.5 -213.5t-214.5 -89.5q-72 0 -135 34.5t-106 92.5q-47 66 -47 131z" />
<glyph unicode="&#xb4;" horiz-adv-x="694" d="M109 1354q0 52 53 78l16 8l230 94q43 18 73 18q41 0 73 -39t32 -81q0 -86 -80 -115l-217 -84q-9 -3 -21 -8t-16 -6q-14 -7 -41 -7q-43 0 -72.5 44.5t-29.5 97.5z" />
<glyph unicode="&#xb6;" horiz-adv-x="1339" d="M106 1094q0 107 37.5 180.5t109 112.5t157 55t200.5 16h490q57 0 90 -33.5t33 -89.5v-1646q0 -57 -30.5 -90t-86.5 -33t-86.5 33t-30.5 90v1534h-192v-1534q0 -57 -30.5 -90t-86.5 -33t-86.5 33t-30.5 90v1054q-221 0 -339 92.5t-118 258.5z" />
<glyph unicode="&#xb7;" horiz-adv-x="464" d="M113 770q0 48 36 86.5t89 38.5q46 0 80 -39t34 -86t-33.5 -81t-80.5 -34q-55 0 -90 33.5t-35 81.5z" />
<glyph unicode="&#xb8;" horiz-adv-x="630" d="M109 -344q0 23 13.5 38t35.5 15q9 0 43.5 -9.5t54.5 -10.5h8q60 0 60 57q0 20 -5.5 32t-17 17t-21 6.5t-26.5 1.5q-3 0 -16.5 1.5t-17.5 2t-13.5 3.5t-12.5 7.5t-6.5 13t-3.5 19.5q0 22 45 82l50 68h122l-79 -104q7 0 22.5 3t22.5 3q66 0 109.5 -42t43.5 -114 q0 -63 -37 -108t-86.5 -64.5t-103.5 -19.5q-28 0 -54.5 3.5t-58.5 13.5t-51.5 31.5t-19.5 53.5z" />
<glyph unicode="&#xb9;" horiz-adv-x="493" d="M-45 1452q0 35 23.5 59.5t58.5 24.5h170q30 0 49.5 -21.5t19.5 -56.5v-762q0 -37 -25.5 -61.5t-62.5 -24.5t-62.5 24.5t-25.5 61.5v668q0 6 -8 6h-55q-35 0 -58.5 24t-23.5 58z" />
<glyph unicode="&#xba;" horiz-adv-x="847" d="M72 1128q0 147 103.5 250t252.5 103q146 0 249 -103.5t103 -249.5q0 -149 -102.5 -252.5t-249.5 -103.5q-149 0 -252.5 103.5t-103.5 252.5zM260 1128q0 -70 48.5 -118.5t119.5 -48.5q69 0 117.5 48.5t48.5 118.5q0 69 -48.5 117.5t-117.5 48.5q-70 0 -119 -48.5 t-49 -117.5z" />
<glyph unicode="&#xbb;" horiz-adv-x="1067" d="M117 258q0 35 22 66l154 233l-154 240q-22 31 -22 75q0 45 31 77t83 32q54 0 84 -35l193 -270q45 -56 45 -111q0 -43 -18 -69l-201 -314q-36 -49 -98 -49q-53 0 -86 35.5t-33 89.5zM520 258q0 32 19 66l157 233l-157 240q-19 34 -19 75q0 45 30.5 77t82.5 32q56 0 86 -35 l190 -270q47 -65 47 -111q0 -43 -18 -69l-203 -314q-32 -49 -98 -49q-53 0 -85 35.5t-32 89.5z" />
<glyph unicode="&#xbc;" horiz-adv-x="1284" d="M37 1452q0 35 23.5 59.5t58.5 24.5h170q30 0 49.5 -21.5t19.5 -56.5v-762q0 -37 -25.5 -61.5t-62.5 -24.5t-62.5 24.5t-25.5 61.5v668q0 6 -8 6h-55q-35 0 -58.5 24t-23.5 58zM268 55v8l414 1436q5 19 22 32t37 13q25 0 44.5 -19t19.5 -42q0 -15 -2 -21l-410 -1415 q-3 -22 -21 -38.5t-40 -16.5q-25 0 -44.5 19t-19.5 44zM563 258q0 34 19 59q338 539 346 551q36 56 94 56q48 0 81.5 -33t33.5 -82v-494q0 -6 6 -6q35 -5 57.5 -27.5t22.5 -56.5t-22.5 -57t-57.5 -23q-6 0 -6 -8v-59q0 -36 -25.5 -61t-64.5 -25q-35 0 -60.5 25.5t-25.5 60.5 v59q0 8 -9 8h-276q-46 0 -79.5 33t-33.5 80zM774 313q0 -4 4 -4h174q9 0 9 6v230v92l-7 -10q-180 -311 -180 -314z" />
<glyph unicode="&#xbd;" horiz-adv-x="1415" d="M6 1452q0 35 23 59.5t57 24.5h2h164h6q29 0 49.5 -20.5t20.5 -51.5v-6v-762q0 -37 -25.5 -61.5t-62.5 -24.5t-62.5 24.5t-25.5 61.5v668q0 6 -9 6h-55h-2q-34 0 -57 24t-23 58zM283 55v8l413 1436q6 19 23 32t37 13q25 0 44 -19t19 -42q0 -15 -2 -21l-409 -1415 q-3 -22 -21.5 -38.5t-40.5 -16.5q-25 0 -44 19t-19 44zM690 123q0 51 39 90q9 10 91 85.5t172.5 158t97.5 88.5q45 42 45 94t-36 87.5t-87 35.5q-41 0 -73 -23.5t-46 -60.5q-9 -27 -32 -43.5t-52 -16.5q-35 0 -61.5 26t-26.5 63q0 13 6 28q30 90 108 147.5t177 57.5 q125 0 213 -87.5t88 -213.5q0 -121 -99 -217q-16 -16 -86 -75.5t-132 -110.5l-62 -52q-3 -6 2 -6h291q37 0 63.5 -26.5t26.5 -63.5t-26.5 -62.5t-63.5 -25.5h-412q-50 0 -87.5 37t-37.5 86z" />
<glyph unicode="&#xbe;" horiz-adv-x="1748" d="M117 860q0 38 21 64t57 26q32 0 56 -18.5t32 -48.5q9 -45 44.5 -75t80.5 -30q52 0 88 41t36 99q0 54 -33 95.5t-81 49.5q-34 5 -57 28t-23 60q0 61 74 90q20 7 33.5 27.5t13.5 42.5q0 29 -19 49t-47 20q-19 0 -37 -12t-29.5 -26.5t-29.5 -26.5t-37 -12q-53 0 -75 45.5 t5 89.5q31 53 84 83.5t117 30.5q95 0 163.5 -68t68.5 -163q0 -83 -54 -147q-12 -8 0 -11q65 -42 103.5 -110t38.5 -148q0 -126 -89.5 -215.5t-215.5 -89.5q-73 0 -136 35t-106 94q-47 66 -47 131zM653 55q0 -25 19.5 -44t44.5 -19q22 0 40 16.5t21 38.5l410 1415q2 6 2 21 q0 23 -19.5 42t-44.5 19q-20 0 -36.5 -13t-22.5 -32l-414 -1436v-8zM997 258q0 34 19 59q338 539 346 551q36 56 94 56q47 0 81 -33t34 -80v-2v-494q0 -6 6 -6q35 -5 57.5 -27.5t22.5 -56.5t-22.5 -57t-57.5 -23q-6 0 -6 -8v-51v-8q0 -36 -25.5 -61t-64.5 -25 q-35 0 -60.5 25.5t-25.5 60.5v8v51q0 8 -9 8h-274h-2q-46 0 -79.5 33t-33.5 80zM1208 311.5q1 -2.5 4 -2.5h174q9 0 9 6v312q0 6 -6 0l-179 -310q-3 -3 -2 -5.5z" />
<glyph unicode="&#xbf;" horiz-adv-x="921" d="M76 -57q0 -110 59.5 -197.5t156.5 -133.5t212 -46q130 0 236 87.5t106 188.5q0 75 -42.5 118.5t-117.5 43.5q-25 0 -57 -22.5t-57.5 -50t-55.5 -50t-53 -22.5q-88 0 -88 96q0 47 33.5 96.5t80.5 97.5t94.5 101.5t81 130t33.5 162.5q0 70 -18.5 122.5t-48.5 81t-63 42.5 t-68 14q-65 0 -108.5 -37.5t-43.5 -106.5q0 -29 29 -78t29 -85q0 -39 -18 -73t-47.5 -60.5t-64.5 -53.5t-70 -60.5t-64.5 -73.5t-47.5 -100t-18 -132zM362 991q0 56 42 97.5t100 41.5q56 0 97.5 -42t41.5 -97q0 -58 -41.5 -99.5t-97.5 -41.5q-59 0 -100.5 41.5t-41.5 99.5z " />
<glyph unicode="&#xc0;" horiz-adv-x="1536" d="M109 135q0 -62 42.5 -102.5t106.5 -40.5q95 0 143 119l72 165q3 11 16 11h555q13 0 17 -11l74 -165q49 -119 143 -119q64 0 106.5 40.5t42.5 102.5q0 28 -12 60l-504 1257q-39 96 -143 96t-143 -96l-504 -1257q-12 -32 -12 -60zM530 1841q0 42 32 81.5t73 39.5 q30 0 74 -18l229 -95l16 -8q25 -12 39.5 -33.5t14.5 -44.5q0 -53 -30 -97t-73 -44q-16 0 -21.5 0.5t-9.5 1.5t-17 6.5t-30 11.5l-217 84q-80 29 -80 115zM590 573l172 433q2 8 6 8q2 0 3.5 -2t2.5 -4v-2l170 -433q3 -6 1 -10t-7 -4h-342q-12 0 -6 14z" />
<glyph unicode="&#xc1;" horiz-adv-x="1536" d="M109 135q0 -62 42.5 -102.5t106.5 -40.5q95 0 143 119l72 165q3 11 16 11h555q13 0 17 -11l74 -165q49 -119 143 -119q64 0 106.5 40.5t42.5 102.5q0 28 -12 60l-504 1257q-39 96 -143 96t-143 -96l-504 -1257q-12 -32 -12 -60zM528 1763q0 23 14.5 44.5t39.5 33.5l16 8 l229 95q44 18 74 18q41 0 73 -39.5t32 -81.5q0 -86 -80 -115l-217 -84q-14 -5 -26 -9.5t-15 -6t-9 -3t-10.5 -1.5h-17.5q-43 0 -73 44t-30 97zM590 573l172 433q2 8 6 8q2 0 3.5 -2t2.5 -4v-2l170 -433q3 -6 1 -10t-7 -4h-342q-12 0 -6 14z" />
<glyph unicode="&#xc2;" horiz-adv-x="1536" d="M109 135q0 -62 42.5 -102.5t106.5 -40.5q95 0 143 119l72 165q3 11 16 11h555q13 0 17 -11l74 -165q49 -119 143 -119q64 0 106.5 40.5t42.5 102.5q0 28 -12 60l-504 1257q-39 96 -143 96t-143 -96l-504 -1257q-12 -32 -12 -60zM471 1759q0 83 90 119l205 84l207 -84 q90 -39 90 -119q0 -46 -36 -80t-83 -34q-11 0 -26.5 5t-39.5 15t-36 14l-76 33l-76 -33q-8 -3 -34 -14t-41 -15.5t-25 -4.5q-47 0 -83 34t-36 80zM590 573l172 433q2 8 6 8q2 0 3.5 -2t2.5 -4v-2l170 -433q3 -6 1 -10t-7 -4h-342q-12 0 -6 14z" />
<glyph unicode="&#xc3;" horiz-adv-x="1536" d="M109 135q0 -62 42.5 -102.5t106.5 -40.5q95 0 143 119l72 165q3 11 16 11h555q13 0 17 -11l74 -165q49 -119 143 -119q64 0 106.5 40.5t42.5 102.5q0 28 -12 60l-504 1257q-39 96 -143 96t-143 -96l-504 -1257q-12 -32 -12 -60zM426 1774q0 82 56.5 131t138.5 49 q51 0 127 -25.5t102 -25.5q31 0 82 29.5t78 29.5q45 0 70.5 -34.5t25.5 -80.5q0 -74 -63 -126t-138 -52q-35 0 -118 25.5t-113 25.5q-29 0 -69.5 -26.5t-76.5 -26.5q-38 0 -70 34t-32 73zM590 573l172 433q2 8 6 8q2 0 3.5 -2t2.5 -4v-2l170 -433q3 -6 1 -10t-7 -4h-342 q-12 0 -6 14z" />
<glyph unicode="&#xc4;" horiz-adv-x="1536" d="M109 135q0 -62 42.5 -102.5t106.5 -40.5q95 0 143 119l72 165q3 11 16 11h555q13 0 17 -11l74 -165q49 -119 143 -119q64 0 106.5 40.5t42.5 102.5q0 28 -12 60l-504 1257q-39 96 -143 96t-143 -96l-504 -1257q-12 -32 -12 -60zM418 1808q0 58 40 98t99 40q57 0 97 -40 t40 -98q0 -57 -40 -97t-97 -40q-58 0 -98.5 40t-40.5 97zM590 573l172 433q2 8 6 8q2 0 3.5 -2t2.5 -4v-2l170 -433q3 -6 1 -10t-7 -4h-342q-12 0 -6 14zM840 1808q0 58 40 98t97 40q59 0 99 -40t40 -98q0 -57 -40.5 -97t-98.5 -40q-57 0 -97 40t-40 97z" />
<glyph unicode="&#xc5;" horiz-adv-x="1536" d="M109 135q0 28 12 60l504 1257q39 96 143 96t143 -96l504 -1257q12 -32 12 -60q0 -62 -42.5 -102.5t-106.5 -40.5q-94 0 -143 119l-74 165q-4 11 -17 11h-555q-13 0 -16 -11l-72 -165q-48 -119 -143 -119q-64 0 -106.5 40.5t-42.5 102.5zM563 1798q0 85 59 144t144 59 t144 -59t59 -144t-59 -144t-144 -59t-144 59t-59 144zM590 573q-6 -14 6 -14h342q5 0 7 4t-1 10l-170 433q-2 8 -6 8q-2 0 -3.5 -2t-2.5 -4v-2zM635 1798q0 -54 38.5 -92.5t92.5 -38.5t92.5 38.5t38.5 92.5t-38.5 92.5t-92.5 38.5t-92.5 -38.5t-38.5 -92.5z" />
<glyph unicode="&#xc6;" horiz-adv-x="1648" d="M61 135q0 25 13 60l504 1257q35 86 143 86q6 0 17.5 -1t17.5 -1h674q61 0 102 -41.5t41 -103.5t-41 -105t-102 -43h-398q-12 0 -12 -12v-301q0 -12 12 -12h398q61 0 102 -42t41 -104t-41 -104.5t-102 -42.5h-398q-12 0 -12 -13v-307q0 -12 12 -12h398q61 0 102 -43 t41 -105t-41 -103.5t-102 -41.5h-558q-61 0 -103 42.5t-42 104.5v140h-285q-13 0 -16 -11l-72 -165q-48 -119 -143 -119q-64 0 -107 40.5t-43 102.5zM543 573q-6 -14 6 -14h178v449q-1 1 -2 2.5t-2 2.5t-2 1q-2 0 -3.5 -2t-1.5 -4l-1 -2zM999 287l15 -11q-4 8 -15 11z" />
<glyph unicode="&#xc7;" horiz-adv-x="1570" d="M111 768q0 160 62 305t167 250t250 167t305 62q84 0 163 -15.5t130.5 -35.5t98 -47.5t65 -42t32.5 -27.5q21 -18 33.5 -31.5t26.5 -42t14 -59.5q0 -61 -42.5 -103t-104.5 -42q-59 0 -107 45q-135 109 -309 109q-210 -9 -351 -149t-141 -343q0 -131 70.5 -243t183 -177 t238.5 -72q174 0 309 109q48 45 107 45q62 0 104.5 -42t42.5 -103q0 -31 -14 -59.5t-26.5 -42t-33.5 -31.5q-14 -13 -32.5 -27.5t-65 -42t-98 -47.5t-130.5 -35.5t-163 -15.5q-160 0 -305 62t-250 167t-167 250t-62 305zM578 -344q0 23 13.5 38t35.5 15q9 0 43.5 -9.5 t54.5 -10.5q68 -4 68 57q0 20 -5.5 32t-17 17t-21 6.5t-26.5 1.5q-3 0 -16.5 1.5t-17.5 2t-13.5 3.5t-12.5 7.5t-6.5 13t-3.5 19.5q0 22 45 82l50 68h122l-79 -104q7 0 22.5 3t22.5 3q66 0 109.5 -42t43.5 -114q0 -63 -37 -108t-86.5 -64.5t-103.5 -19.5q-28 0 -54.5 3.5 t-58.5 13.5t-51.5 31.5t-19.5 53.5z" />
<glyph unicode="&#xc8;" horiz-adv-x="1079" d="M117 147q0 -62 42 -104.5t103 -42.5h557q61 0 102.5 41.5t41.5 103.5t-41.5 105t-102.5 43h-397q-12 0 -12 12v307q0 13 12 13h397q61 0 102.5 42.5t41.5 104.5t-41.5 104t-102.5 42h-397q-12 0 -12 12v301q0 12 12 12h397q61 0 102.5 43t41.5 105t-41.5 103.5 t-102.5 41.5h-557q-61 0 -103 -42.5t-42 -104.5v-1242zM287 1841q0 42 31.5 81.5t72.5 39.5q31 0 74 -18l229 -95l17 -8q53 -26 53 -78q0 -53 -29.5 -97t-72.5 -44q-16 0 -21.5 0.5t-9.5 1.5t-17 6.5t-30 11.5l-217 84q-80 29 -80 115z" />
<glyph unicode="&#xc9;" horiz-adv-x="1079" d="M117 147q0 -62 42 -104.5t103 -42.5h557q61 0 102.5 41.5t41.5 103.5t-41.5 105t-102.5 43h-397q-12 0 -12 12v307q0 13 12 13h397q61 0 102.5 42.5t41.5 104.5t-41.5 104t-102.5 42h-397q-12 0 -12 12v301q0 12 12 12h397q61 0 102.5 43t41.5 105t-41.5 103.5 t-102.5 41.5h-557q-61 0 -103 -42.5t-42 -104.5v-1242zM309 1763q0 52 53 78l17 8l229 95q43 18 74 18q41 0 72.5 -39.5t31.5 -81.5q0 -86 -79 -115l-218 -84q-17 -6 -29.5 -11.5t-16.5 -6.5t-9.5 -1.5t-21.5 -0.5q-43 0 -73 44t-30 97z" />
<glyph unicode="&#xca;" horiz-adv-x="1079" d="M117 147q0 -62 42 -104.5t103 -42.5h557q61 0 102.5 41.5t41.5 103.5t-41.5 105t-102.5 43h-397q-12 0 -12 12v307q0 13 12 13h397q61 0 102.5 42.5t41.5 104.5t-41.5 104t-102.5 42h-397q-12 0 -12 12v301q0 12 12 12h397q61 0 102.5 43t41.5 105t-41.5 103.5 t-102.5 41.5h-557q-61 0 -103 -42.5t-42 -104.5v-1242zM254 1759q0 83 90 119l205 84l207 -84q90 -39 90 -119q0 -46 -36 -80t-83 -34q-11 0 -26.5 5t-39.5 15t-36 14l-76 33l-76 -33q-8 -3 -34 -14t-41 -15.5t-25 -4.5q-47 0 -83 34t-36 80z" />
<glyph unicode="&#xcb;" horiz-adv-x="1079" d="M117 147q0 -62 42 -104.5t103 -42.5h557q61 0 102.5 41.5t41.5 103.5t-41.5 105t-102.5 43h-397q-12 0 -12 12v307q0 13 12 13h397q61 0 102.5 42.5t41.5 104.5t-41.5 104t-102.5 42h-397q-12 0 -12 12v301q0 12 12 12h397q61 0 102.5 43t41.5 105t-41.5 103.5 t-102.5 41.5h-557q-61 0 -103 -42.5t-42 -104.5v-1242zM195 1808q0 58 40 98t99 40q57 0 97 -40t40 -98q0 -57 -40 -97t-97 -40q-58 0 -98.5 40t-40.5 97zM616 1808q0 58 40.5 98t97.5 40q59 0 99 -40t40 -98q0 -57 -40.5 -97t-98.5 -40q-57 0 -97.5 40t-40.5 97z" />
<glyph unicode="&#xcc;" horiz-adv-x="526" d="M27 1841q0 42 31.5 81.5t72.5 39.5q31 0 74 -18l229 -95l17 -8q53 -26 53 -78q0 -53 -30 -97t-73 -44q-16 0 -21.5 0.5t-9.5 1.5t-16.5 6.5t-29.5 11.5l-218 84q-79 29 -79 115zM117 135q0 -61 42.5 -102t104.5 -41t104 41t42 102v1266q0 61 -42 102t-104 41t-104.5 -41 t-42.5 -102v-1266z" />
<glyph unicode="&#xcd;" horiz-adv-x="526" d="M23 1763q0 52 53 78l16 8l230 95q44 18 73 18q41 0 73 -39.5t32 -81.5q0 -86 -80 -115l-217 -84q-14 -5 -26 -9.5t-15 -6t-9 -3t-10.5 -1.5h-17.5q-43 0 -72.5 44t-29.5 97zM117 135q0 -61 42.5 -102t104.5 -41t104 41t42 102v1266q0 61 -42 102t-104 41t-104.5 -41 t-42.5 -102v-1266z" />
<glyph unicode="&#xce;" horiz-adv-x="526" d="M-31 1759q0 83 90 119l205 84l207 -84q90 -39 90 -119q0 -46 -36 -80t-83 -34q-11 0 -26.5 5t-39.5 15t-36 14l-76 33l-76 -33q-8 -3 -34 -14t-41 -15.5t-25 -4.5q-47 0 -83 34t-36 80zM117 135q0 -61 42.5 -102t104.5 -41t104 41t42 102v1266q0 61 -42 102t-104 41 t-104.5 -41t-42.5 -102v-1266z" />
<glyph unicode="&#xcf;" horiz-adv-x="526" d="M-86 1808q0 58 40 98t99 40q57 0 97 -40t40 -98q0 -57 -40 -97t-97 -40q-58 0 -98.5 40t-40.5 97zM117 135q0 -61 42.5 -102t104.5 -41t104 41t42 102v1266q0 61 -42 102t-104 41t-104.5 -41t-42.5 -102v-1266zM336 1808q0 58 40 98t97 40q59 0 99 -40t40 -98 q0 -57 -40.5 -97t-98.5 -40q-57 0 -97 40t-40 97z" />
<glyph unicode="&#xd0;" horiz-adv-x="1708" d="M111 729q0 53 33 85t89 32h86v522q0 72 48 120t120 48h336q157 0 300.5 -61.5t246.5 -164.5t164 -245t61 -297t-61 -297t-164 -245t-246.5 -164.5t-300.5 -61.5h-348q-63 0 -109.5 46.5t-46.5 109.5v456h-86q-56 0 -89 32t-33 85zM612 305q0 -12 13 -12h198 q211 0 345.5 132.5t134.5 342.5q0 212 -128.5 343.5t-338.5 131.5h-211q-13 0 -13 -12v-385h86q57 0 90 -32t33 -85t-33 -85t-90 -32h-86v-307z" />
<glyph unicode="&#xd1;" horiz-adv-x="1456" d="M72 59v1223q0 73 57 129.5t131 56.5q104 0 170 -100l528 -864q11 -17 21 -17q9 0 15.5 7.5t6.5 17.5v815q0 61 41 101t103 40t105.5 -41t43.5 -102v-1223q0 -73 -57 -129.5t-131 -56.5q-104 0 -170 100l-528 865q-11 16 -21 16q-9 0 -15.5 -7.5t-6.5 -17.5v-815 q0 -61 -41 -101t-103 -40t-105.5 41t-43.5 102zM399 1774q0 82 56.5 131t138.5 49q51 0 127 -25.5t102 -25.5q31 0 82 29.5t78 29.5q45 0 70.5 -34.5t25.5 -80.5q0 -74 -62.5 -126t-137.5 -52q-35 0 -118.5 25.5t-113.5 25.5q-29 0 -69 -26.5t-76 -26.5q-38 0 -70.5 34 t-32.5 73z" />
<glyph unicode="&#xd2;" horiz-adv-x="1794" d="M113 768q0 -160 62 -305t167 -250t250 -167t305 -62t305 62t250 167t167 250t62 305t-62 305t-167 250t-250 167t-305 62t-305 -62t-250 -167t-167 -250t-62 -305zM406 768q0 134 66 247t179 179t246 66q134 0 247 -66t179 -179t66 -247q0 -100 -39 -190.5t-104.5 -157 t-157 -105.5t-191.5 -39q-133 0 -246 66t-179 179.5t-66 246.5zM666 1841q0 42 31.5 81.5t72.5 39.5q30 0 74 -18l229 -95l17 -8q53 -26 53 -78q0 -53 -30 -97t-73 -44q-16 0 -21.5 0.5t-9.5 1.5t-16.5 6.5t-29.5 11.5l-218 84q-79 29 -79 115z" />
<glyph unicode="&#xd3;" horiz-adv-x="1794" d="M137 735q0 -160 62 -305t167 -250t250.5 -167t305.5 -62t305 62t250 167t167 250t62 305t-62 305.5t-167 250.5t-250 167t-305 62t-305.5 -62t-250.5 -167t-167 -250.5t-62 -305.5zM430 735q0 100 39 191.5t105.5 157t157 104.5t190.5 39q134 0 247 -66t178.5 -179 t65.5 -247q0 -133 -65.5 -246t-178.5 -179t-247 -66q-133 0 -246.5 66t-179.5 179t-66 246zM666 1763q0 52 53 78l16 8l230 95q44 18 73 18q41 0 73 -39.5t32 -81.5q0 -86 -80 -115l-217 -84q-14 -5 -26 -9.5t-15 -6t-9 -3t-10.5 -1.5h-17.5q-43 0 -72.5 44t-29.5 97z" />
<glyph unicode="&#xd4;" horiz-adv-x="1794" d="M113 768q0 -160 62 -305t167 -250t250 -167t305 -62t305 62t250 167t167 250t62 305t-62 305t-167 250t-250 167t-305 62t-305 -62t-250 -167t-167 -250t-62 -305zM406 768q0 134 66 247t179 179t246 66q134 0 247 -66t179 -179t66 -247q0 -100 -39 -190.5t-104.5 -157 t-157 -105.5t-191.5 -39q-133 0 -246 66t-179 179.5t-66 246.5zM610 1759q0 83 90 119l205 84l207 -84q90 -39 90 -119q0 -46 -36 -80t-83 -34q-11 0 -26.5 5t-39.5 15t-36 14l-76 33l-76 -33q-8 -3 -34 -14t-41 -15.5t-25 -4.5q-47 0 -83 34t-36 80z" />
<glyph unicode="&#xd5;" horiz-adv-x="1794" d="M113 768q0 -160 62 -305t167 -250t250 -167t305 -62t305 62t250 167t167 250t62 305t-62 305t-167 250t-250 167t-305 62t-305 -62t-250 -167t-167 -250t-62 -305zM406 768q0 134 66 247t179 179t246 66q134 0 247 -66t179 -179t66 -247q0 -100 -39 -190.5t-104.5 -157 t-157 -105.5t-191.5 -39q-133 0 -246 66t-179 179.5t-66 246.5zM567 1774q0 82 56.5 131t138.5 49q51 0 127 -25.5t102 -25.5q31 0 82 29.5t78 29.5q45 0 70.5 -34.5t25.5 -80.5q0 -74 -62.5 -126t-137.5 -52q-35 0 -118.5 25.5t-113.5 25.5q-29 0 -69 -26.5t-76 -26.5 q-38 0 -70.5 34t-32.5 73z" />
<glyph unicode="&#xd6;" horiz-adv-x="1794" d="M113 768q0 -160 62 -305t167 -250t250 -167t305 -62t305 62t250 167t167 250t62 305t-62 305t-167 250t-250 167t-305 62t-305 -62t-250 -167t-167 -250t-62 -305zM406 768q0 134 66 247t179 179t246 66q134 0 247 -66t179 -179t66 -247q0 -100 -39 -190.5t-104.5 -157 t-157 -105.5t-191.5 -39q-133 0 -246 66t-179 179.5t-66 246.5zM547 1808q0 58 40 98t99 40q57 0 97 -40t40 -98q0 -57 -40 -97t-97 -40q-58 0 -98.5 40t-40.5 97zM969 1808q0 58 40 98t97 40q59 0 99 -40t40 -98q0 -57 -40.5 -97t-98.5 -40q-57 0 -97 40t-40 97z" />
<glyph unicode="&#xd7;" horiz-adv-x="1175" d="M130.5 177.5q-1.5 45.5 37.5 86.5l254 254l-254 254q-34 34 -36.5 81t36.5 87q36 36 81.5 37.5t86.5 -37.5l254 -254l254 254q37 37 83 37.5t85 -37.5q37 -34 37 -82.5t-37 -85.5l-254 -254l254 -254q37 -37 37.5 -83t-37.5 -85q-34 -37 -82.5 -37t-85.5 37l-254 254 l-254 -254q-34 -34 -81 -36.5t-87 36.5q-36 36 -37.5 81.5z" />
<glyph unicode="&#xd8;" horiz-adv-x="1794" d="M113 768q0 160 62 305t167 250t250 167t305 62q69 0 137 -12l15 51q6 20 24.5 34.5t40.5 14.5q27 0 49.5 -21t22.5 -46q0 -17 -2 -25l-15 -45q228 -84 370 -284.5t142 -450.5q0 -160 -62 -305t-167 -250t-250 -167t-305 -62q-80 0 -162 16l-12 -43q-3 -25 -24 -43 t-46 -18q-28 0 -48.5 20.5t-20.5 48.5v10l18 66q-219 87 -354 284.5t-135 442.5zM406 768q0 -144 76.5 -262.5t201.5 -179.5l268 929q-45 5 -55 5q-133 0 -246 -66t-179 -179t-66 -247zM817 283q44 -7 80 -7q100 0 191.5 39t157 105.5t104.5 157t39 190.5q0 150 -83.5 272.5 t-218.5 180.5z" />
<glyph unicode="&#xd9;" horiz-adv-x="1243" d="M115 436q0 -127 74 -230.5t191 -159.5t247 -56t244.5 56t185.5 159.5t71 230.5v965q0 61 -41.5 102t-103.5 41t-104.5 -41t-42.5 -102v-924v-6v-2q-3 -77 -64.5 -131.5t-144.5 -54.5q-80 0 -149.5 55t-69.5 139v924q0 61 -42 102t-104 41t-104.5 -41t-42.5 -102v-965z M391 1841q0 42 32 81.5t73 39.5q30 0 73 -18l230 -95l16 -8q53 -26 53 -78q0 -53 -29.5 -97t-72.5 -44q-16 0 -21.5 0.5t-9.5 1.5t-17 6.5t-30 11.5l-217 84q-80 29 -80 115z" />
<glyph unicode="&#xda;" horiz-adv-x="1243" d="M115 436q0 -127 74 -230.5t191 -159.5t247 -56t244.5 56t185.5 159.5t71 230.5v965q0 61 -41.5 102t-103.5 41t-104.5 -41t-42.5 -102v-924v-6v-2q-3 -77 -64.5 -131.5t-144.5 -54.5q-80 0 -149.5 55t-69.5 139v924q0 61 -42 102t-104 41t-104.5 -41t-42.5 -102v-965z M397 1763q0 23 14.5 44.5t39.5 33.5l16 8l229 95q44 18 74 18q41 0 72.5 -39.5t31.5 -81.5q0 -86 -79 -115l-217 -84q-14 -5 -26 -9.5t-15 -6t-9 -3t-10.5 -1.5h-17.5q-43 0 -73 44t-30 97z" />
<glyph unicode="&#xdb;" horiz-adv-x="1243" d="M115 436q0 -127 74 -230.5t191 -159.5t247 -56t244.5 56t185.5 159.5t71 230.5v965q0 61 -41.5 102t-103.5 41t-104.5 -41t-42.5 -102v-924v-6v-2q-3 -77 -64.5 -131.5t-144.5 -54.5q-80 0 -149.5 55t-69.5 139v924q0 61 -42 102t-104 41t-104.5 -41t-42.5 -102v-965z M342 1759q0 83 90 119l205 84l207 -84q90 -39 90 -119q0 -46 -36 -80t-83 -34q-11 0 -26.5 5t-39.5 15t-36 14l-76 33l-76 -33q-8 -3 -34 -14t-41 -15.5t-25 -4.5q-47 0 -83 34t-36 80z" />
<glyph unicode="&#xdc;" horiz-adv-x="1243" d="M115 436q0 -127 74 -230.5t191 -159.5t247 -56t244.5 56t185.5 159.5t71 230.5v965q0 61 -41.5 102t-103.5 41t-104.5 -41t-42.5 -102v-924v-6v-2q-3 -77 -64.5 -131.5t-144.5 -54.5q-80 0 -149.5 55t-69.5 139v924q0 61 -42 102t-104 41t-104.5 -41t-42.5 -102v-965z M279 1808q0 58 40 98t99 40q57 0 97 -40t40 -98q0 -57 -40 -97t-97 -40q-58 0 -98.5 40t-40.5 97zM700 1808q0 58 40.5 98t97.5 40q59 0 99 -40t40 -98q0 -57 -40.5 -97t-98.5 -40q-57 0 -97.5 40t-40.5 97z" />
<glyph unicode="&#xdd;" horiz-adv-x="1216" d="M109 1393q0 -37 12 -60l342 -780v-406q0 -63 43.5 -109t103.5 -46q63 0 104.5 45.5t41.5 109.5v406l340 780q12 23 12 60q0 64 -39 107.5t-100 43.5q-47 0 -85.5 -24.5t-56.5 -67.5l-213 -530q-4 -7 -6 -7t-6 7l-213 530q-18 43 -57 67.5t-84 24.5q-61 0 -100 -43.5 t-39 -107.5zM371 1763q0 52 53 78l16 8l230 95q44 18 73 18q41 0 73 -39.5t32 -81.5q0 -86 -80 -115l-217 -84q-14 -5 -26 -9.5t-15 -6t-9 -3t-10.5 -1.5h-17.5q-43 0 -72.5 44t-29.5 97z" />
<glyph unicode="&#xde;" horiz-adv-x="1787" d="M117 135v1251v13v2q0 61 42.5 102t104.5 41t104 -41t42 -102v-150q174 0 180 2q195 0 320.5 -131.5t125.5 -328.5q0 -129 -56 -236.5t-159 -171t-231 -63.5h-168q-12 0 -12 -11v-176v-2q-1 -61 -43 -101t-103 -40h-6q-29 0 -61 14q-36 19 -58 53t-22 76zM410 627 q0 -13 12 -13h168q42 0 73.5 18.5t48 47.5t24 57.5t7.5 55.5q0 26 -7.5 53t-24 54t-48 44t-73.5 17h-168q-12 0 -12 -13v-321z" />
<glyph unicode="&#xdf;" horiz-adv-x="1146" d="M117 143v987q0 162 111.5 277t281.5 127q6 2 18 2h29q12 0 18 -2q170 -12 282 -130t112 -284q0 -152 -88 -270q83 -67 130.5 -164t47.5 -209q0 -129 -57.5 -237t-161 -172.5t-230.5 -67.5h-12q-61 0 -102 41.5t-41 103.5t41 105t102 43q77 0 122.5 57t45.5 139 q0 78 -60.5 136.5t-132.5 58.5q-45 0 -80.5 36.5t-35.5 82.5q0 55 35 94t81 39q58 4 86.5 48.5t28.5 109.5q0 61 -43 105t-108 44q-35 0 -60.5 -11.5t-37.5 -26t-19.5 -33.5t-8.5 -28t-1 -14v-987q0 -61 -42 -102t-104 -41h-12q-27 0 -55 14q-36 19 -58 53t-22 76z" />
<glyph unicode="&#xe0;" horiz-adv-x="1202" d="M53 512q0 -143 71 -264.5t193 -192.5t265 -71q152 0 274 75q36 -67 119 -67h12q61 0 93 49.5t32 118.5v702q0 68 -30 116t-95 54h-2h-10q-82 0 -119 -69q-126 77 -274 77q-143 0 -265 -71t-193 -192.5t-71 -264.5zM330 512q0 107 73 180.5t179 73.5q107 0 179.5 -73.5 t72.5 -180.5t-72.5 -180.5t-179.5 -73.5q-106 0 -179 73.5t-73 180.5zM362 1432q0 42 32 81t73 39q31 0 74 -18l229 -94l16 -8q25 -12 39.5 -33.5t14.5 -44.5q0 -53 -30 -97.5t-73 -44.5q-15 0 -21.5 0.5t-10 2t-16.5 7t-30 11.5l-217 84q-80 29 -80 115z" />
<glyph unicode="&#xe1;" horiz-adv-x="1198" d="M49 512q0 -143 71 -264.5t193 -192.5t265 -71q152 0 274 75q36 -67 119 -67h12q61 0 93 49.5t32 118.5v702q0 68 -30 116t-95 54h-2h-10q-82 0 -119 -69q-126 77 -274 77q-143 0 -265 -71t-193 -192.5t-71 -264.5zM326 512q0 107 73 180.5t179 73.5q107 0 179 -73 t72 -181t-72 -181t-179 -73q-106 0 -179 73.5t-73 180.5zM358 1354q0 23 14.5 44.5t39.5 33.5l16 8l229 94q43 18 74 18q41 0 73 -39t32 -81q0 -86 -80 -115l-217 -84q-15 -5 -26.5 -9.5t-14.5 -6.5t-9 -3.5t-10.5 -1.5h-17.5q-43 0 -73 44.5t-30 97.5z" />
<glyph unicode="&#xe2;" horiz-adv-x="1202" d="M53 512q0 -143 71 -264.5t193 -192.5t265 -71q152 0 274 75q36 -67 119 -67h12q61 0 93 49.5t32 118.5v702q0 68 -30 116t-95 54h-2h-10q-82 0 -119 -69q-126 77 -274 77q-143 0 -265 -71t-193 -192.5t-71 -264.5zM305 1350q0 82 90 118l205 84l207 -84q45 -20 67.5 -47 t22.5 -71q0 -47 -36.5 -81t-82.5 -34q-11 0 -26.5 5t-39 15t-36.5 15l-76 33l-76 -33q-10 -4 -34.5 -14.5t-40 -15.5t-25.5 -5q-46 0 -82.5 34t-36.5 81zM330 512q0 107 73 180.5t179 73.5q107 0 179.5 -73.5t72.5 -180.5t-72.5 -180.5t-179.5 -73.5q-106 0 -179 73.5 t-73 180.5z" />
<glyph unicode="&#xe3;" horiz-adv-x="1202" d="M53 512q0 -143 71 -264.5t193 -192.5t265 -71q152 0 274 75q36 -67 119 -67h12q61 0 93 49.5t32 118.5v702q0 68 -30 116t-95 54h-2h-10q-82 0 -119 -69q-126 77 -274 77q-143 0 -265 -71t-193 -192.5t-71 -264.5zM260 1364q0 82 56.5 131t138.5 49q51 0 127 -25.5 t102 -25.5q31 0 82 29.5t78 29.5q45 0 70.5 -34t25.5 -80q0 -74 -63 -126t-138 -52q-35 0 -118 25.5t-113 25.5q-29 0 -69.5 -27t-76.5 -27q-38 0 -70 34t-32 73zM330 512q0 107 73 180.5t179 73.5q107 0 179.5 -73.5t72.5 -180.5t-72.5 -180.5t-179.5 -73.5 q-106 0 -179 73.5t-73 180.5z" />
<glyph unicode="&#xe4;" horiz-adv-x="1202" d="M53 512q0 -143 71 -264.5t193 -192.5t265 -71q152 0 274 75q36 -67 119 -67h12q61 0 93 49.5t32 118.5v702q0 68 -30 116t-95 54h-2h-10q-82 0 -119 -69q-126 77 -274 77q-143 0 -265 -71t-193 -192.5t-71 -264.5zM252 1399q0 58 40 97.5t99 39.5q57 0 97 -39.5t40 -97.5 q0 -57 -40 -97t-97 -40q-58 0 -98.5 40t-40.5 97zM330 512q0 107 73 180.5t179 73.5q107 0 179.5 -73.5t72.5 -180.5t-72.5 -180.5t-179.5 -73.5q-106 0 -179 73.5t-73 180.5zM674 1399q0 58 40 97.5t97 39.5q59 0 99 -39.5t40 -97.5q0 -57 -40.5 -97t-98.5 -40 q-57 0 -97 40t-40 97z" />
<glyph unicode="&#xe5;" horiz-adv-x="1202" d="M53 512q0 143 71 264.5t193 192.5t265 71q148 0 274 -77q37 69 119 69h10h2q65 -6 95 -54t30 -116v-702q0 -69 -32 -118.5t-93 -49.5h-12q-83 0 -119 67q-122 -75 -274 -75q-143 0 -265 71t-193 192.5t-71 264.5zM330 512q0 -107 73 -180.5t179 -73.5q107 0 179.5 73.5 t72.5 180.5t-72.5 180.5t-179.5 73.5q-106 0 -179 -73.5t-73 -180.5zM397 1389q0 85 59 143.5t144 58.5t144 -58.5t59 -143.5t-59 -144t-144 -59t-144 59t-59 144zM469 1389q0 -54 38.5 -93t92.5 -39t92.5 39t38.5 93t-38.5 92.5t-92.5 38.5t-92.5 -38.5t-38.5 -92.5z" />
<glyph unicode="&#xe6;" horiz-adv-x="1964" d="M61 512q0 143 71 264.5t193 192.5t265 71q148 0 274 -77q37 69 119 69h12q76 -9 105 -71q124 79 280 79q134 0 247.5 -61.5t184.5 -168.5t84 -239v-12q0 -57 -41 -99t-98 -42h-608q29 -73 92 -123.5t139 -50.5q59 0 106 16.5t88 38.5t71 29q61 13 100 -17.5t39 -83.5 q0 -60 -47 -104q-142 -139 -357 -139q-154 0 -280 77q-34 -69 -105 -69h-12q-83 0 -119 67q-122 -75 -274 -75q-143 0 -265 71t-193 192.5t-71 264.5zM338 512q0 -107 73 -180.5t179 -73.5q107 0 179.5 73.5t72.5 180.5t-72.5 180.5t-179.5 73.5q-106 0 -179 -73.5 t-73 -180.5zM1155 623h449q-31 63 -91.5 101t-132.5 38q-74 0 -134.5 -38.5t-90.5 -100.5z" />
<glyph unicode="&#xe7;" horiz-adv-x="1153" d="M72 514q0 143 70.5 264t192.5 191.5t267 70.5q131 0 249.5 -66t184.5 -165q23 -35 23 -84q0 -56 -40.5 -87.5t-100.5 -25.5q-30 3 -56.5 20t-49 38t-48.5 42t-66.5 35.5t-91.5 14.5q-104 0 -177 -72.5t-73 -175.5q0 -104 73 -177t177 -73q68 0 120 32.5t101 100.5 q12 15 21 24t29.5 22.5t41.5 14.5t56 -1q106 -17 106 -129q0 -27 -10 -54q-69 -132 -193.5 -211t-275.5 -79q-145 0 -267 70.5t-192.5 192.5t-70.5 267zM371 -344q0 23 13.5 38t35.5 15q9 0 43.5 -9.5t54.5 -10.5q68 -4 68 57q0 20 -5.5 32t-17 17t-21 6.5t-26.5 1.5 q-3 0 -16.5 1.5t-17.5 2t-13.5 3.5t-12.5 7.5t-6.5 13t-3.5 19.5q0 21 46 82l49 68h123l-80 -104q7 0 22.5 3t22.5 3q66 0 109.5 -42t43.5 -114q0 -63 -37 -108t-86.5 -64.5t-103.5 -19.5q-28 0 -54.5 3.5t-58.5 13.5t-51.5 31.5t-19.5 53.5z" />
<glyph unicode="&#xe8;" horiz-adv-x="1175" d="M57 514q0 -145 70.5 -267t193 -192.5t267.5 -70.5q214 0 356 139q47 44 47 104q0 53 -39 83.5t-100 17.5q-26 -6 -57 -20.5t-55.5 -28t-65 -24.5t-86.5 -11q-73 0 -135 47t-93 117q-2 3 0.5 6.5t6.5 3.5h598q57 0 98 42t41 99v12q-13 132 -84 239t-184.5 168.5 t-247.5 61.5q-145 0 -267.5 -70.5t-193 -191.5t-70.5 -264zM348 1432q0 42 32 81t73 39q29 0 73 -18l230 -94l16 -8q53 -26 53 -78q0 -53 -29.5 -97.5t-72.5 -44.5q-15 0 -21.5 0.5t-10 2t-16.5 7t-30 11.5l-217 84q-80 29 -80 115zM367 633q31 58 91 93.5t130 35.5 q69 0 126.5 -35t90.5 -94q5 -10 -6 -10h-426q-11 0 -6 10z" />
<glyph unicode="&#xe9;" horiz-adv-x="1175" d="M57 514q0 -145 70.5 -267t193 -192.5t267.5 -70.5q214 0 356 139q47 44 47 104q0 53 -39 83.5t-100 17.5q-26 -6 -57 -20.5t-55.5 -28t-65 -24.5t-86.5 -11q-73 0 -135 47t-93 117q-2 3 0.5 6.5t6.5 3.5h598q57 0 98 42t41 99v12q-13 132 -84 239t-184.5 168.5 t-247.5 61.5q-145 0 -267.5 -70.5t-193 -191.5t-70.5 -264zM348 1354q0 52 53 78l17 8l229 94q43 18 74 18q41 0 72.5 -39t31.5 -81q0 -86 -80 -115l-217 -84q-17 -6 -29.5 -11.5t-16.5 -7t-10 -2t-21 -0.5q-43 0 -73 44.5t-30 97.5zM367 633q31 58 91 93.5t130 35.5 q69 0 126.5 -35t90.5 -94q5 -10 -6 -10h-426q-11 0 -6 10z" />
<glyph unicode="&#xea;" horiz-adv-x="1175" d="M57 514q0 -145 70.5 -267t193 -192.5t267.5 -70.5q214 0 356 139q47 44 47 104q0 53 -39 83.5t-100 17.5q-26 -6 -57 -20.5t-55.5 -28t-65 -24.5t-86.5 -11q-73 0 -135 47t-93 117q-2 3 0.5 6.5t6.5 3.5h598q57 0 98 42t41 99v12q-13 132 -84 239t-184.5 168.5 t-247.5 61.5q-145 0 -267.5 -70.5t-193 -191.5t-70.5 -264zM291 1350q0 82 90 118l205 84l207 -84q45 -20 67.5 -47t22.5 -71q0 -47 -36.5 -81t-82.5 -34q-11 0 -26.5 5t-39 15t-36.5 15l-76 33l-76 -33q-10 -4 -34.5 -14.5t-40 -15.5t-25.5 -5q-46 0 -82.5 34t-36.5 81z M367 633q31 58 91 93.5t130 35.5q69 0 126.5 -35t90.5 -94q5 -10 -6 -10h-426q-11 0 -6 10z" />
<glyph unicode="&#xeb;" horiz-adv-x="1175" d="M57 514q0 -145 70.5 -267t193 -192.5t267.5 -70.5q214 0 356 139q47 44 47 104q0 53 -39 83.5t-100 17.5q-26 -6 -57 -20.5t-55.5 -28t-65 -24.5t-86.5 -11q-73 0 -135 47t-93 117q-2 3 0.5 6.5t6.5 3.5h598q57 0 98 42t41 99v12q-13 132 -84 239t-184.5 168.5 t-247.5 61.5q-145 0 -267.5 -70.5t-193 -191.5t-70.5 -264zM238 1399q0 58 40 97.5t99 39.5q57 0 97 -39.5t40 -97.5q0 -57 -40 -97t-97 -40q-58 0 -98.5 40t-40.5 97zM367 633q31 58 91 93.5t130 35.5q69 0 126.5 -35t90.5 -94q5 -10 -6 -10h-426q-11 0 -6 10zM659 1399 q0 58 40.5 97.5t97.5 39.5q59 0 99 -39.5t40 -97.5q0 -57 -40.5 -97t-98.5 -40q-57 0 -97.5 40t-40.5 97z" />
<glyph unicode="&#xec;" horiz-adv-x="430" d="M-23 1432q0 42 32 81t73 39q30 0 74 -18l229 -94l16 -8q25 -12 39.5 -33.5t14.5 -44.5q0 -53 -30 -97.5t-73 -44.5q-15 0 -21.5 0.5t-10 2t-16.5 7t-30 11.5l-217 84q-80 29 -80 115zM92 125q0 -60 35.5 -96.5t89.5 -36.5q51 0 87 36.5t36 96.5v774q0 60 -36 96.5 t-87 36.5q-54 0 -89.5 -36.5t-35.5 -96.5v-774z" />
<glyph unicode="&#xed;" horiz-adv-x="430" d="M-23 1354q0 23 14.5 44.5t39.5 33.5l16 8l229 94q44 18 74 18q41 0 73 -39t32 -81q0 -86 -80 -115l-217 -84q-15 -5 -26.5 -9.5t-14.5 -6.5t-9 -3.5t-10.5 -1.5h-17.5q-43 0 -73 44.5t-30 97.5zM92 125q0 -60 35.5 -96.5t89.5 -36.5q51 0 87 36.5t36 96.5v774 q0 60 -36 96.5t-87 36.5q-54 0 -89.5 -36.5t-35.5 -96.5v-774z" />
<glyph unicode="&#xee;" horiz-adv-x="430" d="M-80 1350q0 82 90 118l205 84l207 -84q45 -20 67.5 -47t22.5 -71q0 -47 -36.5 -81t-82.5 -34q-11 0 -26.5 5t-39 15t-36.5 15l-76 33l-76 -33q-10 -4 -34.5 -14.5t-40 -15.5t-25.5 -5q-46 0 -82.5 34t-36.5 81zM92 125q0 -60 35.5 -96.5t89.5 -36.5q51 0 87 36.5t36 96.5 v774q0 60 -36 96.5t-87 36.5q-54 0 -89.5 -36.5t-35.5 -96.5v-774z" />
<glyph unicode="&#xef;" horiz-adv-x="430" d="M-133 1399q0 58 40 97.5t99 39.5q57 0 97 -39.5t40 -97.5q0 -57 -40 -97t-97 -40q-58 0 -98.5 40t-40.5 97zM92 125q0 -60 35.5 -96.5t89.5 -36.5q51 0 87 36.5t36 96.5v774q0 60 -36 96.5t-87 36.5q-54 0 -89.5 -36.5t-35.5 -96.5v-774zM289 1399q0 58 40 97.5t97 39.5 q59 0 99 -39.5t40 -97.5q0 -57 -40.5 -97t-98.5 -40q-57 0 -97 40t-40 97z" />
<glyph unicode="&#xf0;" horiz-adv-x="1310" d="M111 528q0 215 146 358.5t366 164.5q4 0 4.5 3.5t-2.5 6.5l-43 63l-19 -12q-41 -28 -90.5 -20.5t-77.5 47.5q-31 43 -22 88.5t55 77.5l21 14q-21 35 -21 80q0 62 42 104.5t103 42.5q68 0 115 -57l10 8q46 32 91.5 24t76.5 -51q30 -41 20 -87t-55 -78l-16 -13l311 -489 q74 -129 74 -275q0 -148 -73 -273.5t-198.5 -198t-273.5 -72.5q-111 0 -211.5 43t-173.5 116t-116 173.5t-43 211.5zM403 528q0 -108 72 -180t180 -72q109 0 180.5 71.5t71.5 180.5q0 108 -72 180t-180 72q-107 0 -179.5 -72.5t-72.5 -179.5z" />
<glyph unicode="&#xf1;" horiz-adv-x="1091" d="M90 160q5 -170 143 -170q57 0 96.5 44.5t39.5 125.5v436q4 70 55.5 118t122.5 48q73 0 125.5 -52t52.5 -126v-424q0 -84 39 -126t102 -42q61 0 99.5 42t38.5 126v428q0 215 -120.5 333.5t-336.5 118.5q-128 0 -207 -55q-40 55 -109 55q-62 0 -101 -40.5t-40 -120.5v-9 v-710zM205 1364q0 82 56 131t138 49q51 0 127.5 -25.5t102.5 -25.5q31 0 81.5 29.5t77.5 29.5q45 0 71 -34t26 -80q0 -74 -63 -126t-138 -52q-35 0 -118 25.5t-113 25.5q-29 0 -69.5 -27t-76.5 -27q-38 0 -70 34t-32 73z" />
<glyph unicode="&#xf2;" horiz-adv-x="1191" d="M72 514q0 -145 70.5 -267t192.5 -192.5t267 -70.5q143 0 264 70.5t191.5 192.5t70.5 267q0 143 -70.5 264t-191.5 191.5t-264 70.5q-145 0 -267 -70.5t-192.5 -191.5t-70.5 -264zM352 514q0 103 73 175.5t177 72.5q103 0 175.5 -72.5t72.5 -175.5q0 -104 -72.5 -177 t-175.5 -73q-104 0 -177 73t-73 177zM356 1432q0 42 32 81t73 39q31 0 74 -18l229 -94l16 -8q25 -12 39.5 -33.5t14.5 -44.5q0 -53 -30 -97.5t-73 -44.5q-15 0 -21.5 0.5t-10 2t-16.5 7t-30 11.5l-217 84q-80 29 -80 115z" />
<glyph unicode="&#xf3;" horiz-adv-x="1191" d="M72 514q0 -145 70.5 -267t192.5 -192.5t267 -70.5q143 0 264 70.5t191.5 192.5t70.5 267q0 143 -70.5 264t-191.5 191.5t-264 70.5q-145 0 -267 -70.5t-192.5 -191.5t-70.5 -264zM352 514q0 103 73 175.5t177 72.5q103 0 175.5 -72.5t72.5 -175.5q0 -104 -72.5 -177 t-175.5 -73q-104 0 -177 73t-73 177zM356 1354q0 23 14.5 44.5t39.5 33.5l16 8l229 94q43 18 74 18q41 0 73 -39t32 -81q0 -86 -80 -115l-217 -84q-15 -5 -26.5 -9.5t-14.5 -6.5t-9 -3.5t-10.5 -1.5h-17.5q-43 0 -73 44.5t-30 97.5z" />
<glyph unicode="&#xf4;" horiz-adv-x="1191" d="M72 514q0 -145 70.5 -267t192.5 -192.5t267 -70.5q143 0 264 70.5t191.5 192.5t70.5 267q0 143 -70.5 264t-191.5 191.5t-264 70.5q-145 0 -267 -70.5t-192.5 -191.5t-70.5 -264zM299 1350q0 82 90 118l205 84l207 -84q45 -20 67.5 -47t22.5 -71q0 -47 -36.5 -81 t-82.5 -34q-11 0 -26.5 5t-39 15t-36.5 15l-76 33l-76 -33q-10 -4 -34.5 -14.5t-40 -15.5t-25.5 -5q-46 0 -82.5 34t-36.5 81zM352 514q0 103 73 175.5t177 72.5q103 0 175.5 -72.5t72.5 -175.5q0 -104 -72.5 -177t-175.5 -73q-104 0 -177 73t-73 177z" />
<glyph unicode="&#xf5;" horiz-adv-x="1191" d="M72 514q0 -145 70.5 -267t192.5 -192.5t267 -70.5q143 0 264 70.5t191.5 192.5t70.5 267q0 143 -70.5 264t-191.5 191.5t-264 70.5q-145 0 -267 -70.5t-192.5 -191.5t-70.5 -264zM256 1364q0 82 56.5 131t138.5 49q51 0 127 -25.5t102 -25.5q31 0 82 29.5t78 29.5 q45 0 70.5 -34t25.5 -80q0 -74 -63 -126t-138 -52q-35 0 -118 25.5t-113 25.5q-29 0 -69.5 -27t-76.5 -27q-38 0 -70 34t-32 73zM352 514q0 103 73 175.5t177 72.5q103 0 175.5 -72.5t72.5 -175.5q0 -104 -72.5 -177t-175.5 -73q-104 0 -177 73t-73 177z" />
<glyph unicode="&#xf6;" horiz-adv-x="1191" d="M72 514q0 -145 70.5 -267t192.5 -192.5t267 -70.5q143 0 264 70.5t191.5 192.5t70.5 267q0 143 -70.5 264t-191.5 191.5t-264 70.5q-145 0 -267 -70.5t-192.5 -191.5t-70.5 -264zM246 1399q0 58 40 97.5t99 39.5q57 0 97 -39.5t40 -97.5q0 -57 -40 -97t-97 -40 q-58 0 -98.5 40t-40.5 97zM352 514q0 103 73 175.5t177 72.5q103 0 175.5 -72.5t72.5 -175.5q0 -104 -72.5 -177t-175.5 -73q-104 0 -177 73t-73 177zM668 1399q0 58 40 97.5t97 39.5q59 0 99 -39.5t40 -97.5q0 -57 -40.5 -97t-98.5 -40q-57 0 -97 40t-40 97z" />
<glyph unicode="&#xf7;" d="M102 524q0 53 31 85t84 32h795q53 0 83.5 -32t30.5 -85t-30.5 -84.5t-83.5 -31.5h-795q-54 0 -84.5 31.5t-30.5 84.5zM453 184q0 66 46.5 113t112.5 47t113 -47t47 -113t-47 -112.5t-113 -46.5t-112.5 46.5t-46.5 112.5zM453 864q0 66 46.5 113t112.5 47t113 -47t47 -113 t-47 -112.5t-113 -46.5t-112.5 46.5t-46.5 112.5z" />
<glyph unicode="&#xf8;" horiz-adv-x="1191" d="M72 514q0 143 70.5 264t192.5 191.5t267 70.5q40 0 80 -6l23 72q6 19 22.5 32t36.5 13q25 0 44 -19t19 -42q0 -15 -2 -21l-20 -70q145 -61 234 -192t89 -293q0 -145 -70.5 -267t-191.5 -192.5t-264 -70.5q-34 0 -92 8l-18 -64q-3 -22 -21.5 -38.5t-40.5 -16.5 q-25 0 -44 19.5t-19 44.5v8l22 82q-143 61 -230 193t-87 294zM326 514q0 -76 37 -140.5t100 -99.5l149 517h-10q-115 0 -195.5 -80.5t-80.5 -196.5zM582 238h20q116 0 196.5 80.5t80.5 195.5q0 77 -40 142.5t-106 101.5z" />
<glyph unicode="&#xf9;" horiz-adv-x="1095" d="M90 436q0 -215 120.5 -333.5t336.5 -118.5q128 0 207 55q40 -55 108 -55q62 0 101.5 40.5t40.5 120.5v9v710q-5 170 -144 170q-57 0 -96 -44.5t-39 -125.5v-436q-4 -70 -55.5 -118t-122.5 -48q-73 0 -125.5 52t-52.5 126v424q0 84 -39 126t-103 42q-61 0 -99 -42 t-38 -126v-428zM309 1432q0 42 32 81t73 39q30 0 73 -18l230 -94l16 -8q53 -26 53 -78q0 -53 -29.5 -97.5t-72.5 -44.5q-15 0 -21.5 0.5t-10 2t-16.5 7t-30 11.5l-217 84q-80 29 -80 115z" />
<glyph unicode="&#xfa;" horiz-adv-x="1095" d="M90 436q0 -215 120.5 -333.5t336.5 -118.5q128 0 207 55q40 -55 108 -55q62 0 101.5 40.5t40.5 120.5v9v710q-5 170 -144 170q-57 0 -96 -44.5t-39 -125.5v-436q-4 -70 -55.5 -118t-122.5 -48q-73 0 -125.5 52t-52.5 126v424q0 84 -39 126t-103 42q-61 0 -99 -42 t-38 -126v-428zM309 1354q0 52 53 78l17 8l229 94q43 18 74 18q41 0 72.5 -39t31.5 -81q0 -86 -79 -115l-218 -84q-17 -6 -29.5 -11.5t-16.5 -7t-10 -2t-21 -0.5q-43 0 -73 44.5t-30 97.5z" />
<glyph unicode="&#xfb;" horiz-adv-x="1095" d="M90 436q0 -215 120.5 -333.5t336.5 -118.5q128 0 207 55q40 -55 108 -55q62 0 101.5 40.5t40.5 120.5v9v710q-5 170 -144 170q-57 0 -96 -44.5t-39 -125.5v-436q-4 -70 -55.5 -118t-122.5 -48q-73 0 -125.5 52t-52.5 126v424q0 84 -39 126t-103 42q-61 0 -99 -42 t-38 -126v-428zM252 1350q0 82 90 118l205 84l207 -84q45 -20 67.5 -47t22.5 -71q0 -47 -36.5 -81t-82.5 -34q-11 0 -26.5 5t-39 15t-36.5 15l-76 33l-76 -33q-10 -4 -34.5 -14.5t-40 -15.5t-25.5 -5q-46 0 -82.5 34t-36.5 81z" />
<glyph unicode="&#xfc;" horiz-adv-x="1095" d="M90 436q0 -215 120.5 -333.5t336.5 -118.5q128 0 207 55q40 -55 108 -55q62 0 101.5 40.5t40.5 120.5v9v710q-5 170 -144 170q-57 0 -96 -44.5t-39 -125.5v-436q-4 -70 -55.5 -118t-122.5 -48q-73 0 -125.5 52t-52.5 126v424q0 84 -39 126t-103 42q-61 0 -99 -42 t-38 -126v-428zM199 1399q0 58 40 97.5t99 39.5q57 0 97 -39.5t40 -97.5q0 -57 -40 -97t-97 -40q-58 0 -98.5 40t-40.5 97zM621 1399q0 58 40 97.5t97 39.5q59 0 99 -39.5t40 -97.5q0 -57 -40.5 -97t-98.5 -40q-57 0 -97 40t-40 97z" />
<glyph unicode="&#xfd;" horiz-adv-x="976" d="M76 899q0 -23 12 -55l252 -721q6 -16 0 -35l-111 -317q-12 -32 -12 -56q0 -59 41 -98t102 -39q50 0 87 31.5t49 81.5l395 1153q12 32 12 55q0 59 -41 98t-102 39q-50 0 -86.5 -31t-48.5 -81l-129 -449q-3 -8 -7 -8l-4 8l-131 449q-41 112 -137 112q-60 0 -100.5 -38.5 t-40.5 -98.5zM250 1354q0 52 53 78l16 8l230 94q44 18 74 18q41 0 72.5 -39t31.5 -81q0 -86 -80 -115l-217 -84q-15 -5 -26.5 -9.5t-14.5 -6.5t-9 -3.5t-10.5 -1.5h-17.5q-43 0 -72.5 44.5t-29.5 97.5z" />
<glyph unicode="&#xfe;" horiz-adv-x="1230" d="M92 141v19v1114q0 84 39 127t102 43q61 0 99.5 -43t38.5 -127v-297q119 63 254 63q143 0 264.5 -71t192.5 -192.5t71 -264.5t-71 -264.5t-192.5 -192.5t-264.5 -71q-137 0 -254 65v-299q0 -84 -38.5 -127t-99.5 -43q-71 0 -106 44.5t-35 125.5v391zM373 512 q0 -107 72.5 -180.5t179.5 -73.5q106 0 179 73.5t73 180.5t-73 180.5t-179 73.5q-107 0 -179.5 -73.5t-72.5 -180.5z" />
<glyph unicode="&#xff;" horiz-adv-x="978" d="M76 899q0 -23 12 -55l252 -721q6 -16 0 -35l-111 -317q-12 -32 -12 -56q0 -59 41 -98t102 -39q50 0 87 31.5t49 81.5l395 1153q12 32 12 55q0 59 -41 98t-102 39q-50 0 -86.5 -31t-48.5 -81l-129 -387q-3 -9 -7 -9l-4 9l-131 387q-41 112 -137 112q-60 0 -100.5 -38.5 t-40.5 -98.5zM143 1399q0 58 40.5 97.5t99.5 39.5q57 0 97 -39.5t40 -97.5q0 -57 -40 -97t-97 -40q-58 0 -99 40t-41 97zM565 1399q0 58 40 97.5t97 39.5q59 0 99.5 -39.5t40.5 -97.5q0 -57 -41 -97t-99 -40q-57 0 -97 40t-40 97z" />
<glyph unicode="&#x152;" horiz-adv-x="2310" d="M113 768q0 160 62 305t167 250t250 167t305 62q278 0 494 -174v11q0 62 42 104.5t103 42.5h557q61 0 102 -41.5t41 -103.5t-41 -105t-102 -43h-397q-13 0 -13 -12v-301q0 -12 13 -12h397q61 0 102 -42t41 -104t-41 -104.5t-102 -42.5h-397q-13 0 -13 -13v-307 q0 -12 13 -12h397q61 0 102 -43t41 -105t-41 -103.5t-102 -41.5h-557q-61 0 -103 42.5t-42 104.5v11q-216 -174 -494 -174q-160 0 -305 62t-250 167t-167 250t-62 305zM406 768q0 -133 66 -246.5t179 -179.5t246 -66q100 0 191.5 39t157 105.5t104.5 157t39 190.5 q0 134 -66 247t-179 179t-247 66q-133 0 -246 -66t-179 -179t-66 -247z" />
<glyph unicode="&#x153;" horiz-adv-x="1986" d="M72 514q0 143 70.5 264t192.5 191.5t267 70.5q113 0 213.5 -45.5t173.5 -126.5q73 81 175.5 126.5t217.5 45.5q134 0 247.5 -61.5t184.5 -168.5t84 -239v-12q0 -57 -41 -99t-98 -42h-598q-6 0 -6 -10q31 -70 92.5 -117t134.5 -47q59 0 106 16.5t88 38.5t71 29q24 4 32 4 q48 0 77.5 -30.5t29.5 -74.5q0 -60 -47 -104q-142 -139 -357 -139q-115 0 -217.5 45t-175.5 125q-74 -80 -174 -125t-213 -45q-145 0 -267 70.5t-192.5 192.5t-70.5 267zM352 514q0 -104 73 -177t177 -73q103 0 175.5 73t72.5 177q0 103 -72.5 175.5t-175.5 72.5 q-104 0 -177 -72.5t-73 -175.5zM1161 629q0 -2 2.5 -3.5t4.5 -1.5l3 -1h422q9 0 9 4q0 1 -1.5 3t-1.5 3q-33 59 -90.5 94t-126.5 35q-93 0 -157 -50.5t-64 -82.5z" />
<glyph unicode="&#x178;" horiz-adv-x="1216" d="M109 1393q0 -37 12 -60l342 -780v-406q0 -63 43.5 -109t103.5 -46q63 0 104.5 45.5t41.5 109.5v406l340 780q12 23 12 60q0 64 -39 107.5t-100 43.5q-47 0 -85.5 -24.5t-56.5 -67.5l-213 -530q-4 -7 -6 -7t-6 7l-213 530q-18 43 -57 67.5t-84 24.5q-61 0 -100 -43.5 t-39 -107.5zM262 1808q0 58 40 98t99 40q57 0 97.5 -40t40.5 -98q0 -57 -40.5 -97t-97.5 -40q-58 0 -98.5 40t-40.5 97zM684 1808q0 58 40 98t97 40q59 0 99.5 -40t40.5 -98q0 -57 -41 -97t-99 -40q-57 0 -97 40t-40 97z" />
<glyph unicode="&#x2c6;" horiz-adv-x="815" d="M113 1350q0 82 90 118l205 84l206 -84q46 -20 68.5 -47t22.5 -71q0 -47 -36.5 -81t-82.5 -34q-11 0 -27 5t-40 15.5t-36 14.5l-75 33l-76 -33q-10 -4 -35 -14.5t-40.5 -15.5t-25.5 -5q-46 0 -82 34t-36 81z" />
<glyph unicode="&#x2dc;" horiz-adv-x="909" d="M115 1364q0 82 56 131t138 49q51 0 127.5 -25.5t102.5 -25.5q31 0 81.5 29.5t77.5 29.5q45 0 71 -34t26 -80q0 -74 -63 -126t-138 -52q-35 0 -118.5 25.5t-113.5 25.5q-29 0 -69 -27t-76 -27q-38 0 -70 34t-32 73z" />
<glyph unicode="&#x2000;" horiz-adv-x="1000" />
<glyph unicode="&#x2001;" horiz-adv-x="2001" />
<glyph unicode="&#x2002;" horiz-adv-x="1000" />
<glyph unicode="&#x2003;" horiz-adv-x="2001" />
<glyph unicode="&#x2004;" horiz-adv-x="667" />
<glyph unicode="&#x2005;" horiz-adv-x="500" />
<glyph unicode="&#x2006;" horiz-adv-x="333" />
<glyph unicode="&#x2007;" horiz-adv-x="333" />
<glyph unicode="&#x2008;" horiz-adv-x="250" />
<glyph unicode="&#x2009;" horiz-adv-x="400" />
<glyph unicode="&#x200a;" horiz-adv-x="111" />
<glyph unicode="&#x2010;" horiz-adv-x="878" d="M115 588q0 53 33 85t90 32h403q57 0 90 -32t33 -85t-33 -85t-90 -32h-403q-57 0 -90 32t-33 85z" />
<glyph unicode="&#x2011;" horiz-adv-x="878" d="M115 588q0 53 33 85t90 32h403q57 0 90 -32t33 -85t-33 -85t-90 -32h-403q-57 0 -90 32t-33 85z" />
<glyph unicode="&#x2012;" horiz-adv-x="878" d="M115 588q0 53 33 85t90 32h403q57 0 90 -32t33 -85t-33 -85t-90 -32h-403q-57 0 -90 32t-33 85z" />
<glyph unicode="&#x2013;" horiz-adv-x="1257" d="M117 588q0 53 33 85t90 32h778q57 0 90 -32t33 -85t-33 -85t-90 -32h-778q-57 0 -90 32t-33 85z" />
<glyph unicode="&#x2014;" horiz-adv-x="1617" d="M117 588q0 53 33 85t90 32h1138q57 0 90 -32t33 -85t-33 -85t-90 -32h-1138q-57 0 -90 32t-33 85z" />
<glyph unicode="&#x2018;" horiz-adv-x="460" d="M109 1419q0 48 34.5 86.5t79.5 38.5q51 0 87 -38t36 -87v-196q0 -29 -26 -54.5t-54 -25.5q-32 0 -53 17t-29 42l-65 170q-10 23 -10 47z" />
<glyph unicode="&#x2019;" horiz-adv-x="460" d="M115 1223v196q0 49 36 87t87 38q45 0 79.5 -38.5t34.5 -86.5q0 -24 -10 -47l-66 -170q-19 -59 -81 -59q-28 0 -54 25.5t-26 54.5z" />
<glyph unicode="&#x201a;" horiz-adv-x="460" d="M115 -78v197q0 49 36 87t87 38q45 0 79.5 -38.5t34.5 -86.5q0 -24 -10 -47l-66 -170q-8 -26 -28.5 -43t-52.5 -17q-28 0 -54 25.5t-26 54.5z" />
<glyph unicode="&#x201c;" horiz-adv-x="790" d="M113 1419q0 48 34.5 86.5t79.5 38.5q51 0 87 -38t36 -87v-196q0 -29 -26 -54.5t-54 -25.5q-32 0 -53 17t-29 42l-65 170q-10 23 -10 47zM436 1419q0 48 35 86.5t80 38.5q51 0 87 -38t36 -87v-196q0 -29 -26 -54.5t-54 -25.5q-32 0 -53 17t-29 42l-66 170q-10 23 -10 47z " />
<glyph unicode="&#x201d;" horiz-adv-x="790" d="M117 1223v196q0 49 36 87t87 38q45 0 79.5 -38.5t34.5 -86.5q0 -24 -10 -47l-65 -170q-8 -25 -29 -42t-53 -17q-28 0 -54 25.5t-26 54.5zM440 1223v196q0 49 36 87t87 38q45 0 80 -38.5t35 -86.5q0 -24 -10 -47l-66 -170q-8 -25 -29 -42t-53 -17q-28 0 -54 25.5t-26 54.5 z" />
<glyph unicode="&#x201e;" horiz-adv-x="790" d="M117 -78v197q0 49 36 87t87 38q45 0 79.5 -38.5t34.5 -86.5q0 -24 -10 -47l-65 -170q-8 -26 -29 -43t-53 -17q-28 0 -54 25.5t-26 54.5zM440 -78v197q0 49 36 87t87 38q45 0 80 -38.5t35 -86.5q0 -24 -10 -47l-66 -170q-8 -26 -29 -43t-53 -17q-28 0 -54 25.5t-26 54.5z " />
<glyph unicode="&#x2022;" horiz-adv-x="716" d="M113 614q0 101 72 173.5t173 72.5t173.5 -72.5t72.5 -173.5t-72.5 -173t-173.5 -72t-173 72t-72 173z" />
<glyph unicode="&#x2026;" horiz-adv-x="1501" d="M117 106q0 48 36 86.5t89 38.5q46 0 80 -39t34 -86t-33.5 -80.5t-80.5 -33.5q-55 0 -90 33t-35 81zM631 106q0 48 36 86.5t89 38.5q46 0 80 -39t34 -86t-33.5 -80.5t-80.5 -33.5q-55 0 -90 33t-35 81zM1145 106q0 48 36 86.5t89 38.5q46 0 80 -39t34 -86t-33.5 -80.5 t-80.5 -33.5q-55 0 -90 33t-35 81z" />
<glyph unicode="&#x202f;" horiz-adv-x="400" />
<glyph unicode="&#x2039;" horiz-adv-x="655" d="M104 565q0 44 48 111l190 270q30 35 86 35q52 0 82.5 -32t30.5 -77q0 -41 -19 -75l-157 -240l157 -233q19 -34 19 -66q0 -54 -32 -89.5t-85 -35.5q-66 0 -98 49l-203 314q-19 27 -19 69z" />
<glyph unicode="&#x203a;" horiz-adv-x="655" d="M115 258q0 34 18 66l158 233l-158 240q-18 32 -18 75q0 45 30 77t82 32q56 0 86 -35l191 -270q47 -65 47 -111q0 -42 -19 -69l-202 -314q-32 -49 -99 -49q-53 0 -84.5 35.5t-31.5 89.5z" />
<glyph unicode="&#x205f;" horiz-adv-x="500" />
<glyph unicode="&#x20ac;" horiz-adv-x="1232" d="M78 588q0 52 30.5 83t84.5 34v110q-54 2 -84.5 32.5t-30.5 84.5q0 52 30.5 83t84.5 34q0 16 2 22q14 176 136 310t298 163q23 4 30 4q36 4 56 4q124 0 231.5 -54t179.5 -148q27 -38 27 -88q0 -64 -40.5 -105t-102.5 -41q-75 0 -115 49q-69 92 -180 92q-53 0 -99 -22 q-16 -8 -24 -14q-1 -1 -29 -23l-18 -18q-38 -41 -53 -93l-7 -26q0 -2 -1 -6t-1 -6h408q57 0 90 -31t33 -86t-33 -86t-90 -31h-408v-110h408q57 0 90 -31t33 -86t-32.5 -86.5t-90.5 -36.5h-404q4 -21 21 -59l10 -15q19 -32 45 -55l8 -6q37 -29 78 -43q27 -8 66 -8 q111 0 180 92q40 49 115 49q62 0 102.5 -41t40.5 -105q0 -50 -27 -88q-72 -94 -179.5 -148t-231.5 -54q-61 0 -127 16q-31 6 -96 35q-94 44 -162 119l-13 16q-42 48 -67 100q-26 48 -37 92q-17 61 -20 109q-54 2 -84.5 32.5t-30.5 84.5z" />
<glyph unicode="&#x2122;" horiz-adv-x="1773" d="M113 1448q0 36 25.5 64t58.5 28h417q33 0 59.5 -28t26.5 -64q0 -31 -27 -57.5t-59 -26.5h-114l-6 -6v-8v-658q0 -37 -25 -59.5t-63 -22.5t-63.5 22.5t-25.5 59.5v658v8q0 6 -6 6h-114q-32 0 -58 26.5t-26 57.5zM719 696v703q0 60 42 102.5t101 42.5q42 0 77.5 -29.5 t47.5 -74.5l193 -539q3 -6 6 -6q6 0 6 6l192 539q12 44 50 74t82 30q57 0 99 -42.5t42 -102.5v-703q0 -33 -29 -59.5t-65 -26.5q-33 0 -56.5 24.5t-23.5 59.5v529q0 8 -8 8t-11 -8l-188 -545q-9 -31 -33 -49.5t-53 -18.5q-34 0 -59.5 18.5t-34.5 49.5q-179 531 -183 545 q-1 0 -3 1t-3 1l-6 -2v-518q0 -39 -26 -67t-62 -28t-65 26.5t-29 59.5z" />
<glyph unicode="&#xe000;" horiz-adv-x="1034" d="M0 0v1034h1034v-1034h-1034z" />
<glyph unicode="&#xfb01;" horiz-adv-x="1353" d="M68 901q0 54 38.5 88.5t114.5 34.5h68v119q0 139 71 217t205 78h117q74 0 118 -32.5t44 -86.5q0 -56 -38 -89.5t-114 -33.5h-12q-59 0 -86 -20t-27 -76v-76h183q74 0 112.5 -34.5t38.5 -88.5q0 -57 -38 -92t-113 -35h-183v-624q0 -84 -38 -126t-99 -42q-63 0 -102 42 t-39 126v624h-68q-76 0 -114.5 35t-38.5 92zM983 160v702q0 84 39 127t102 43q61 0 99.5 -43t38.5 -127v-702q0 -84 -38.5 -126t-99.5 -42q-63 0 -102 42t-39 126zM983 1249q0 56 41.5 98t99.5 42q56 0 98 -42.5t42 -97.5q0 -58 -42 -99.5t-98 -41.5q-58 0 -99.5 41 t-41.5 100z" />
<glyph unicode="&#xfb02;" horiz-adv-x="1353" d="M68 901q0 54 38.5 88.5t114.5 34.5h68v119q0 139 71 217t205 78h117q74 0 118 -32.5t44 -86.5q0 -56 -38 -89.5t-114 -33.5h-12q-59 0 -86 -20t-27 -76v-76h183q74 0 112.5 -34.5t38.5 -88.5q0 -57 -38 -92t-113 -35h-183v-624q0 -84 -38 -126t-99 -42q-63 0 -102 42 t-39 126v624h-68q-76 0 -114.5 35t-38.5 92zM983 160v1114q0 84 39 127t102 43q61 0 99.5 -43t38.5 -127v-1114q0 -84 -38.5 -126t-99.5 -42q-63 0 -102 42t-39 126z" />
</font>
</defs>
</svg>
